<svg xmlns="http://www.w3.org/2000/svg" xmlns:xlink="http://www.w3.org/1999/xlink" width="500" height="500" viewBox="0 0 500 500" fill="none"><defs><rect id="path_0" x="0" y="0" width="500" height="500" /></defs><g opacity="1" transform="translate(0 0)  rotate(0 250 250)"><mask id="bg-mask-0" fill="white"><use xlink:href="#path_0"></use></mask><g mask="url(#bg-mask-0)" ><g opacity="1" transform="translate(71.73024811184855 45.356232162315806)  rotate(0 177.09180615044428 143.8768839188421)"><path id="路径 1" fill-rule="evenodd" style="fill:#EBEBEB" transform="translate(21.428315254555585 254.01926249451753)  rotate(0 16.040929826630332 13.62225267158334)" opacity="1" d="M23.86,0.09C20.54,-0.43 17.27,1.25 15.76,4.25C13.98,1.26 10.4,-0.16 7.05,0.79C5.14,1.38 3.46,2.55 2.25,4.14C0.96,5.73 0.19,7.66 0.02,9.69C-0.13,12.3 0.56,14.89 1.99,17.07C3.62,19.27 5.75,21.04 8.21,22.24C12.19,24.29 16.67,27.24 16.67,27.24C16.67,27.24 21.56,24.04 25.28,21.49C27.57,20.01 29.48,17.99 30.84,15.62C31.99,13.29 32.35,10.66 31.88,8.1C31.49,6.11 30.49,4.28 29.02,2.86C27.63,1.43 25.83,0.46 23.86,0.09Z " /><path id="路径 2" fill-rule="evenodd" style="fill:#EBEBEB" transform="translate(300.134975783666 143.5692624945176)  rotate(0 16.037719113050855 13.627252671583307)" opacity="1" d="M0.02,9.69C-0.14,12.3 0.54,14.89 1.96,17.08C3.59,19.28 5.73,21.05 8.18,22.25C12.17,24.25 16.64,27.25 16.64,27.25C16.64,27.25 21.54,24.05 25.25,21.5C27.55,20.02 29.46,18.01 30.81,15.63C31.97,13.3 32.34,10.66 31.88,8.1C31.48,6.11 30.48,4.28 29.01,2.86C27.63,1.43 25.82,0.46 23.85,0.09C20.54,-0.43 17.26,1.25 15.75,4.25C13.97,1.26 10.4,-0.16 7.04,0.79C5.14,1.38 3.46,2.55 2.25,4.14C0.96,5.72 0.18,7.66 0.02,9.69Z " /><path id="路径 3" fill-rule="evenodd" style="fill:#F5F5F5" transform="translate(48.50474415463546 232.6606547266653)  rotate(0 10.30094491523301 8.751556555509381)" opacity="1" d="M20.48,5.2C20.22,3.92 19.58,2.74 18.64,1.83C17.75,0.91 16.59,0.29 15.33,0.06C13.2,-0.28 11.09,0.8 10.13,2.72C9.7,2.04 9.12,1.46 8.44,1.03C7.26,0.33 5.85,0.14 4.53,0.5C3.3,0.88 2.22,1.64 1.45,2.66C0.61,3.67 0.11,4.92 0.02,6.22C-0.09,7.89 0.35,9.54 1.26,10.94C2.3,12.35 3.68,13.49 5.26,14.26C7.82,15.6 10.7,17.5 10.7,17.5C10.7,17.5 13.84,15.44 16.23,13.8C17.7,12.85 18.92,11.56 19.8,10.03C20.54,8.54 20.78,6.84 20.48,5.2Z " /><path id="路径 4" fill-rule="evenodd" style="fill:#F5F5F5" transform="translate(283.03493968284835 171.5176772937662)  rotate(0 10.30062909360484 8.748045271959)" opacity="1" d="M0.01,6.23C-0.09,7.89 0.35,9.54 1.25,10.94C2.3,12.35 3.67,13.49 5.25,14.26C7.82,15.61 10.69,17.5 10.69,17.5C10.69,17.5 13.83,15.44 16.22,13.81C17.7,12.86 18.93,11.56 19.79,10.04C20.54,8.54 20.78,6.85 20.47,5.21C20.22,3.92 19.58,2.74 18.63,1.84C17.75,0.91 16.59,0.29 15.32,0.06C13.97,-0.15 12.59,0.21 11.5,1.06C10.93,1.51 10.46,2.08 10.12,2.74C8.96,0.83 6.68,-0.08 4.52,0.52C3.3,0.89 2.22,1.65 1.44,2.67C0.62,3.68 0.12,4.92 0.01,6.23Z " /><path id="路径 5" fill-rule="evenodd" style="fill:#EBEBEB" transform="translate(333.58474415463553 222.06854364009087)  rotate(0 10.29943407312652 8.75261209879659)" opacity="1" d="M16.22,13.81C17.69,12.85 18.92,11.56 19.8,10.04C20.53,8.54 20.77,6.85 20.48,5.21C20.22,3.92 19.58,2.74 18.64,1.84C17.74,0.92 16.58,0.3 15.33,0.07C13.2,-0.28 11.09,0.79 10.13,2.73C9.7,2.04 9.12,1.46 8.44,1.04C7.26,0.34 5.85,0.14 4.53,0.51C3.3,0.89 2.22,1.64 1.45,2.67C0.61,3.68 0.11,4.92 0.02,6.23C-0.09,7.89 0.35,9.55 1.26,10.95C2.3,12.36 3.68,13.49 5.26,14.27C7.82,15.61 10.69,17.51 10.69,17.51C10.69,17.51 13.84,15.45 16.22,13.81Z " /><path id="路径 6" fill-rule="evenodd" style="fill:#F5F5F5" transform="translate(55.160852095867924 276.22525791522025)  rotate(0 6.795125408674764 5.764254961231984)" opacity="1" d="M0.01,4.1C-0.06,5.2 0.24,6.29 0.84,7.21C1.53,8.14 2.43,8.89 3.47,9.4C5.16,10.28 7.05,11.53 7.05,11.53C7.05,11.53 9.13,10.18 10.7,9.1C11.67,8.47 12.48,7.62 13.06,6.61C13.55,5.62 13.7,4.5 13.51,3.42C13.33,2.57 12.89,1.8 12.26,1.21C11.67,0.6 10.91,0.19 10.08,0.04C9.19,-0.1 8.27,0.14 7.56,0.69C7.18,0.99 6.87,1.37 6.65,1.8C6.37,1.35 5.99,0.96 5.54,0.68C4.76,0.22 3.83,0.09 2.96,0.33C2.16,0.59 1.46,1.09 0.96,1.76C0.41,2.42 0.08,3.24 0.01,4.1Z " /><path id="路径 7" fill-rule="evenodd" style="fill:#EBEBEB" transform="translate(0 37.036226390580666)  rotate(0 42.210662708419825 39.73110065875261)" opacity="1" d="M50.81 64.02C52.38 64.05 52.92 64.5 53.09 65.3C53.2077 65.8537 51.457 66.6996 49.3898 67.6985C48.4703 68.1429 47.4882 68.6174 46.58 69.11C43.63 70.71 40.49 73.11 42.32 75.78C44.15 78.45 53.94 81.9 72.79 76.97L81.38 74.12L83.38 65.24C86.44 46 82.06 36.6 79.21 35.04C76.36 33.48 74.3 36.83 72.99 39.92C72.5825 40.8811 72.2012 41.9158 71.8448 42.8828C71.0553 45.0248 70.3881 46.8351 69.83 46.78C69.02 46.7 68.51 46.19 68.33 44.63C68.15 43.07 66.82 28.79 61.69 26.51C57.4324 24.6178 53.8568 31.9002 52.2264 35.2208C51.8923 35.9012 51.6399 36.4153 51.48 36.65C50.54 38.03 49.48 36.87 49.2 35.93C48.92 34.99 45.69 24.3 44.4 19.38C43.11 14.46 40.92 11.64 37.73 11.94C34.54 12.24 34.15 17.49 33.12 19.67C32.09 21.85 29.65 20.08 29.65 20.08C25 14.84 20.01 9.92 14.71 5.36C4.67 -3.53 1.06 1.29 0.97 1.42C0.38 2.05 -2.7 6.11 6.46 14.54C11.52 19.35 16.9 23.83 22.56 27.93C22.56 27.93 24.56 30.19 22.5 31.42C20.44 32.65 15.27 33.67 15.27 36.76C15.27 39.85 18.27 41.87 23.34 42.67C28.41 43.47 39.34 45.67 40.27 45.83C41.2 45.99 42.49 46.96 41.21 48.03C40.9923 48.212 40.5052 48.5138 39.8603 48.9133C36.7141 50.8626 29.8129 55.1384 32.12 59.18C34.7727 63.8269 47.9506 63.9852 50.5162 64.016C50.6394 64.0174 50.7381 64.0186 50.81 64.02Z" /><path id="路径 8" fill-rule="evenodd" style="fill:#E0E0E0" transform="translate(9.999751888151422 46.653767837684185)  rotate(0 36.335000000000015 33.165000000000006)" opacity="1" d="M11.99,10.87C19.4,17.58 29.58,26.92 40.82,37.24C52.06,47.56 65.09,59.65 72.53,66.33L72.67,66.18C65.27,59.47 52.24,47.34 41,37.03C29.76,26.72 19.56,17.4 12.11,10.72C8.39,7.38 5.37,4.69 3.27,2.84L0.86,0.72C0.59,0.49 0.37,0.31 0.22,0.17C0.15,0.11 0.08,0.05 0,0L0.2,0.2L0.82,0.76C1.37,1.27 2.21,1.99 3.21,2.93L11.99,10.87Z " /><path id="路径 9" fill-rule="evenodd" style="fill:#E0E0E0" transform="translate(22.559751888151453 72.62268962249155)  rotate(0 8.325000000000003 0.2759189657071488)" opacity="1" d="M8.36,0.16C6.07,0.02 3.99,0.02 2.49,0.02L0.71,0.02C0.47,-0.01 0.24,-0.01 0,0.02C0.23,0.07 0.47,0.09 0.71,0.08L2.48,0.14L8.35,0.37C10.64,0.46 12.71,0.55 14.21,0.55C15,0.55 15.57,0.55 16,0.55C16.22,0.56 16.44,0.54 16.65,0.49C16.43,0.47 16.22,0.47 16,0.49L14.22,0.42L8.36,0.16Z " /><path id="路径 10" fill-rule="evenodd" style="fill:#E0E0E0" transform="translate(39.328501888151436 53.19376783768419)  rotate(0 0.15066388351313975 9.575000000000003)" opacity="1" d="M0.29,9.57C0.26,4.29 0.19,0 0.1,0C0.01,0 -0.02,4.3 0.01,9.58C0.04,14.86 0.13,19.15 0.21,19.15C0.28,19.15 0.32,14.85 0.29,9.57Z " /><path id="路径 11" fill-rule="evenodd" style="fill:#E0E0E0" transform="translate(56.07975188815145 72.50376783768417)  rotate(0 1.9860671866206303 8.230000000000011)" opacity="1" d="M2.18,8.28C1.65,10.55 1.07,12.59 0.65,14.07C0.45,14.81 0.29,15.35 0.15,15.81C0.08,16.02 0.03,16.24 0,16.46C0.11,16.27 0.2,16.06 0.26,15.85C0.41,15.44 0.6,14.86 0.84,14.13C1.31,12.66 1.91,10.63 2.46,8.35C3.01,6.07 3.4,3.98 3.65,2.47C3.78,1.67 3.86,1.1 3.92,0.67C3.96,0.45 3.98,0.22 3.97,0C3.89,0.21 3.84,0.43 3.81,0.65C3.71,1.13 3.6,1.73 3.45,2.43C3.18,3.94 2.71,6.01 2.18,8.28Z " /><path id="路径 12" fill-rule="evenodd" style="fill:#E0E0E0" transform="translate(40.78975188815144 88.79376783768417)  rotate(0 7.589999999999989 1.9250000000000114)" opacity="1" d="M0.58,3.64C0.38,3.68 0.18,3.75 0,3.85C0.21,3.83 0.41,3.8 0.61,3.75L2.25,3.38C3.63,3.06 5.54,2.59 7.63,2.06C9.72,1.53 11.62,1.04 12.99,0.66L14.6,0.21C14.8,0.16 15,0.09 15.18,0C14.97,0.02 14.77,0.05 14.57,0.1L12.94,0.47C11.56,0.79 9.66,1.26 7.56,1.79C5.46,2.32 3.57,2.81 2.2,3.19L0.58,3.64Z " /><path id="路径 13" fill-rule="evenodd" style="fill:#E0E0E0" transform="translate(53.52975188815145 104.05376783768419)  rotate(0 9.705000000000005 2.555000000000007)" opacity="1" d="M0.75,4.86C0.49,4.92 0.24,5 0,5.11C0.26,5.09 0.53,5.04 0.78,4.96L2.87,4.46C4.63,4.02 7.06,3.39 9.74,2.69C12.42,1.99 14.85,1.33 16.6,0.85L18.67,0.26C18.92,0.2 19.17,0.11 19.41,0C19.15,0.03 18.89,0.08 18.64,0.15L16.55,0.65C14.78,1.09 12.35,1.71 9.67,2.42C6.99,3.13 4.57,3.78 2.82,4.27L0.75,4.86Z " /><path id="路径 14" fill-rule="evenodd" style="fill:#E0E0E0" transform="translate(72.44975188815145 83.02376783768416)  rotate(0 2.2299999999999898 10.51000000000002)" opacity="1" d="M4.28,0.83C4.18,1.42 4.04,2.18 3.87,3.1C3.53,5.01 3.03,7.66 2.42,10.56C1.81,13.46 1.18,16.07 0.72,17.96C0.49,18.86 0.31,19.62 0.17,20.19C0.09,20.46 0.03,20.74 0,21.02C0.11,20.76 0.2,20.49 0.27,20.22C0.43,19.7 0.65,18.95 0.91,18.01C1.42,16.13 2.08,13.51 2.7,10.61C3.32,7.71 3.78,5.06 4.07,3.13C4.22,2.17 4.32,1.39 4.39,0.85C4.44,0.57 4.46,0.28 4.46,0C4.38,0.27 4.32,0.55 4.28,0.83Z " /><path id="路径 15" fill-rule="evenodd" style="fill:#F5F5F5" transform="translate(270.3843805919944 0)  rotate(0 41.70435456325242 48.74099143768304)" opacity="1" d="M78.33,17.87C81.19,14.96 83.93,11.2 83.33,7.17C82.73,3.14 78.75,0.21 74.73,0.01C70.71,-0.19 66.89,1.81 63.89,4.64C60.89,7.47 58.72,11.02 56.5,14.43C54.28,17.84 51.93,21.26 48.75,23.77C47.83,24.55 46.63,25.22 45.55,24.77C44.5,24.16 43.93,22.97 44.13,21.77C44.31,20.62 44.4,19.46 44.42,18.29C44.16,15.5 41.05,13.61 38.31,14.07C35.57,14.53 33.39,16.78 32.24,19.34C31.21,21.96 30.63,24.73 30.5,27.53C29.97,32.74 29.44,37.94 28.92,43.14C28.63,45.94 27.99,49.25 25.43,50.32C23.56,51.1 21.41,50.3 19.72,49.18C17.13,47.46 15.08,45.03 13.82,42.18C12.87,40.05 12.25,37.53 10.25,36.32C7.86,34.87 4.56,36.21 2.97,38.53C1.38,40.85 1.37,43.84 0.97,46.64C-1.41,63.34 -0.11,82.39 13.17,94.02L13.15,93.99C21.65,98.17 29.98,98.22 39.2,96.1C48.47,93.82 56.98,89.12 63.85,82.47C65.93,80.68 67.63,78.49 68.85,76.03C70.05,73.53 70.02,70.6 68.75,68.12C66.66,64.54 61.75,63.78 57.75,64.78C55.62,65.33 53.56,66.28 51.37,66.46C49.18,66.64 46.69,65.64 45.89,63.64C45.09,61.64 46.39,59.16 48.2,57.94C50.01,56.72 52.24,56.25 54.37,55.72C60.34,54.23 66.01,51.72 71.14,48.3C73.7,46.6 76.41,43.89 75.57,40.89C74.97,38.75 72.72,37.53 70.57,37.04C68.42,36.55 66.14,36.52 64.14,35.61C62.37,34.8 60.8,32.76 61.61,30.97C62.17,30.03 63.02,29.3 64.03,28.87C69.3,25.91 74.11,22.21 78.33,17.87Z " /><path id="路径 16" fill-rule="evenodd" style="fill:#E0E0E0" transform="translate(289.02975188815145 2.9137678376842047)  rotate(0 30.489999999999952 40.59499999999993)" opacity="1" d="M59.71,0.8C58.89,1.34 57.69,2.15 56.18,3.25C51.92,6.35 47.9,9.77 44.18,13.5C41.8,15.88 39.29,18.56 36.68,21.5C34.07,24.44 31.3,27.6 28.51,31.04C25.57,34.62 22.82,38.37 20.28,42.25C18.97,44.28 17.75,46.42 16.53,48.59C15.31,50.76 14.08,52.96 12.82,55.19C8.06,63.56 3.78,72.19 0,81.04L0.41,81.19C4.2,72.36 8.49,63.76 13.24,55.41L16.95,48.81C18.17,46.64 19.37,44.5 20.68,42.5C23.19,38.62 25.92,34.89 28.85,31.32C31.62,27.88 34.37,24.7 36.97,21.76C39.57,18.82 42.05,16.13 44.4,13.76C48.11,10.02 52.08,6.56 56.3,3.41C57.77,2.29 58.97,1.45 59.77,0.89L60.68,0.24C60.79,0.17 60.89,0.09 60.98,0C60.86,0.05 60.75,0.11 60.65,0.19L59.71,0.8Z " /><path id="路径 17" fill-rule="evenodd" style="fill:#E0E0E0" transform="translate(308.6823133631858 14.043767837684193)  rotate(0 0.46487539462737004 15.559999999999999)" opacity="1" d="M0.04,0C-0.01,0.41 -0.01,0.82 0.04,1.23C0.1,2.01 0.16,3.15 0.23,4.56C0.4,7.37 0.42,11.28 0.4,15.56C0.38,19.84 0.38,23.74 0.47,26.56C0.52,27.97 0.57,29.11 0.64,29.9C0.65,30.31 0.69,30.72 0.78,31.12C0.86,30.71 0.88,30.29 0.86,29.87L0.86,26.53C0.88,23.61 0.91,19.81 0.93,15.53C0.95,11.25 0.84,7.35 0.61,4.53C0.5,3.13 0.38,1.99 0.26,1.21C0.22,0.8 0.15,0.4 0.04,0Z " /><path id="路径 18" fill-rule="evenodd" style="fill:#E0E0E0" transform="translate(309.42975188815143 41.93048806271874)  rotate(0 18.315000000000026 1.626639887482746)" opacity="1" d="M35.18,0.39C35.66,0.43 36.15,0.43 36.63,0.39C36.14,0.29 35.64,0.23 35.14,0.22C34.2,0.14 32.86,0.02 31.2,0.02C26.86,-0.06 22.52,0.08 18.2,0.43C13.13,0.84 8.56,1.47 5.27,2.06C3.63,2.35 2.31,2.64 1.4,2.85C0.92,2.94 0.45,3.07 0,3.25C0.48,3.23 0.97,3.16 1.44,3.05C2.33,2.9 3.68,2.67 5.33,2.43C8.62,1.95 13.15,1.35 18.24,0.95C23.33,0.55 27.92,0.39 31.24,0.39C32.9,0.39 34.25,0.39 35.18,0.39Z " /><path id="路径 19" fill-rule="evenodd" style="fill:#E0E0E0" transform="translate(276.41975188815144 35.57376783768417)  rotate(0 6.560000000000002 23.88000000000001)" opacity="1" d="M13.02,47.32C12.92,46.93 12.79,46.48 12.64,45.93L11.21,40.82C10.01,36.45 8.48,30.46 6.81,23.82C5.14,17.18 3.55,11.19 2.26,6.9C1.62,4.75 1.08,3.02 0.67,1.83C0.48,1.29 0.32,0.84 0.2,0.47C0.15,0.31 0.08,0.15 0,0C0.01,0.17 0.04,0.34 0.1,0.5C0.2,0.89 0.33,1.34 0.48,1.89L1.91,7C3.11,11.32 4.64,17.32 6.31,23.95C7.98,30.58 9.57,36.57 10.86,40.87C11.45,43.02 12.04,44.75 12.45,45.94L12.92,47.3C12.96,47.46 13.03,47.62 13.12,47.76C13.1,47.61 13.07,47.46 13.02,47.32Z " /><path id="路径 20" fill-rule="evenodd" style="fill:#E0E0E0" transform="translate(289.53975188815144 73.11282311563355)  rotate(0 24.659999999999997 5.126243590888997)" opacity="1" d="M1.93,9.78L0.49,10.09C0.32,10.12 0.16,10.17 0,10.23C0.17,10.26 0.34,10.26 0.51,10.23L1.96,10.02C3.22,9.77 5.04,9.45 7.28,9.02C11.72,8.18 17.93,6.89 24.72,5.37C31.51,3.85 37.65,2.5 42.11,1.56L47.4,0.46L48.83,0.14C49,0.12 49.17,0.08 49.32,0C49.15,0 48.98,0.01 48.81,0.05L47.36,0.27C46.1,0.47 44.28,0.79 42.04,1.21C37.56,2.05 31.4,3.36 24.61,4.87C17.82,6.38 11.67,7.74 7.21,8.67L1.93,9.78Z " /></g><g opacity="1" transform="translate(26.63 465.56)  rotate(0 223.37 0.26499999999998636)"><path id="路径 21" fill-rule="evenodd" style="fill:#263238" transform="translate(0 0)  rotate(0 223.37 0.26499999999998636)" opacity="1" d="M223.38,0C100,0 0,0.08 0,0.26C0,0.44 100.02,0.53 223.38,0.53C346.74,0.53 446.74,0.41 446.74,0.26C446.74,0.12 346.76,0 223.38,0Z " /></g><g opacity="1" transform="translate(38.53939131114878 192.44430471626706)  rotate(0 202.08510957378567 140.56733808374986)"><path id="路径 22" fill-rule="evenodd" style="fill:#FF725E" transform="translate(277.1606086888512 0)  rotate(0 17.835000000000008 21.49784764186647)" opacity="1" d="M35.67,43C34.23,25.37 22.18,7.05 5.76,0.44C4.87,-0.06 3.81,-0.14 2.86,0.24C1.9,0.83 1.73,2.12 1.66,3.24C1.1,12.5 0.55,21.76 0,31.02L35.67,43Z " /><g opacity="0.30000000000000004" transform="translate(281.7160909127575 9.799249175302748)  rotate(0 7.242326198132872 13.583235984188093)"><path id="路径 23" fill-rule="evenodd" style="fill:#FFFFFF" transform="translate(0 0)  rotate(0 7.242326198132872 13.583235984188093)" opacity="1" d="M1.10969 0.098986C1.08511 0.0827623 1.06051 0.066572 1.03589 0.0504151C1.03059 0.0469418 1.0253 0.0434701 1.02 0.04L1.03 0.04C0.88 -0.03 0.65 -0.01 0.54 0.13C0.4 0.38 0.37 0.68 0.46 0.96L3.46 16.44L0.66 11.66C0.19 13.77 -0.04 15.93 0 18.1C0.06 20.28 0.92 22.37 2.41 23.96C4.05 25.56 6.38 26.18 8.59 26.75C9.48 27.02 10.39 27.16 11.31 27.17C12.25 27.17 13.13 26.78 13.76 26.1C14.37 25.15 14.61 24.01 14.42 22.91C13.7825 13.6457 8.85801 5.21495 1.10969 0.098986Z" /></g><path id="路径 24" fill-rule="evenodd" style="fill:#FF725E" transform="translate(167.9706086888512 14.525695283732887)  rotate(0 20.694999999999993 18.105000000000032)" opacity="1" d="M41.39,19.03C32.6,8.92 20.21,2.63 6.86,1.52L9.15,4.31L0,0C0.5,13.29 5.43,26.04 14,36.21L41.39,19.03Z " /><g opacity="0.30000000000000004" transform="translate(173.88820868885122 22.844390773314302)  rotate(0 12.536262862267392 12.045652255209319)"><path id="路径 25" fill-rule="evenodd" style="fill:#FFFFFF" transform="translate(0 0)  rotate(0 12.536262862267392 12.045652255209319)" opacity="1" d="M0.58 0.02C0.02 0.22 -0.05 1.01 0.02 1.61C1.13 10.5 5.87 18.54 13.11 23.82C13.22 23.92 13.33 24.01 13.45 24.09L13.15 23.85C13.14 23.84 13.13 23.83 13.11 23.82C12.48 23.23 12.19 22.35 12.37 21.48C14.46 21.98 16.67 21.6 18.47 20.43L15.47 17.82C18.53 18.76 21.85 18.02 24.22 15.88C24.76 15.49 25.08 14.86 25.07 14.19C24.91 13.6 24.51 13.1 23.97 12.8L16.97 7.67C17.11 8.92 17.56 10.11 18.27 11.14L1.76 0.35C1.44 0.07 1.01 -0.05 0.58 0.02Z" /></g><path id="路径 26" fill-rule="evenodd" style="fill:#FF725E" transform="translate(105.11782025326355 20.2026248719977)  rotate(0 140.99139421779387 126.8915352058676)" opacity="1" d="M42.61,95.93L36.47,95.18C36.47,95.18 39.13,108.96 47.63,112.27C47.63,112.27 34.35,113.93 30.63,108.96C30.63,108.96 26.21,129.56 46.32,137.33C46.32,137.33 -13.94,144.39 3,218.16C7,235.39 30.75,247.79 58.1,253.78L255.1,253.01C267.1,249.09 281.42,209.33 281.95,193.34C282.48,177.35 274.52,146.46 274.52,146.46L281.98,156.39L263.34,117.8C263.34,117.8 276.14,131.03 281.96,129.93C281.96,129.93 261.74,108.42 253.24,88.57C249.18,79.19 244.35,70.15 238.78,61.57C242.61,54.97 246.02,47.5 247.58,39.95C243.28,44.94 238.38,49.37 232.99,53.15C232.55,52.53 232.1,51.92 231.64,51.3C236.17,47.21 239.18,41.72 240.2,35.7L219.99,34.83C220.63,33.92 221.2,32.97 221.7,31.98C211.77,23.45 200.66,16.41 188.7,11.07C165.45,-2.16 113.7,-6.53 88.5,14.98C65.93,28.14 59.88,44.98 42.1,49.15L31.56,48C31.56,48 27.46,70 40.93,79.83L30.93,77.51C30.93,77.51 32.77,86.27 42.61,95.93Z " /><path id="路径 27" fill-rule="evenodd" style="fill:#FF725E" transform="translate(118.95060868885122 168.7087394569164)  rotate(0 17.709999999999994 20.72347791340829)" opacity="1" d="M24.53 10.32C15.76 11.35 7.36 14.44 0 19.32C1.93 8.15 13.04 -0.64 24.35 0.04L28.15 22.82C23.93 26.24 20.64 30.75 18.7 35.94C15.14 27.01 17.46 16.82 24.53 10.32ZM29.94 33.55C29.96 28.11 31.85 22.76 35.42 18.45C32.78 19.57 30.34 21.05 28.15 22.82L29.94 33.55ZM29.94 33.55C29.93 36.2 30.36 38.87 31.26 41.45L29.94 33.55Z" /><path id="路径 28" fill-rule="evenodd" style="fill:#263238" transform="translate(118.6306086888512 168.745695283733)  rotate(0 18.235 20.714999999999975)" opacity="1" d="M15.54 1.4C17.69 0.59 19.96 0.12 22.25 0L22.26 0C19.99 0.17 17.75 0.68 15.63 1.51C12.32 2.78 9.33 4.76 6.86 7.3C5.32 8.83 4.01 10.58 2.97 12.49C1.88 14.44 1.1 16.53 0.65 18.71L0.2 19.01L0.55 19.24C0.58 19.06 0.62 18.89 0.65 18.71C7.94 14 16.21 11.03 24.83 10.01L25.64 9.92L25.03 10.46C24.98 10.51 24.92 10.56 24.87 10.61L24.88 10.63L24.84 10.63C22.85 12.5 21.22 14.71 20.03 17.17C17.26 22.8 16.92 29.31 19.06 35.19C20.65 31.24 23.04 27.66 26.07 24.66C28.84 21.92 32.12 19.73 35.71 18.21L36.47 17.89L35.94 18.52C33.78 21.1 32.2 24.11 31.31 27.36C30.63 29.82 30.35 32.38 30.46 34.93C30.54 36.55 30.78 38.15 31.18 39.72C31.31 40.26 31.45 40.67 31.52 40.94C31.56 41.1 31.58 41.27 31.58 41.43C31.51 41.3 31.46 41.16 31.42 41.02C31.33 40.75 31.17 40.35 31.01 39.82C30.57 38.25 30.29 36.63 30.19 35C30.04 32.42 30.3 29.84 30.96 27.34C31.76 24.3 33.16 21.46 35.07 18.98C27.78 22.37 22.09 28.49 19.25 36.04L19.03 36.64L18.79 36.05C16.35 29.9 16.61 23 19.52 17.05C20.67 14.69 22.22 12.55 24.1 10.73C15.65 11.84 7.57 14.85 0.44 19.53L0 19.82L0.1 19.3C0.54 16.89 1.39 14.56 2.6 12.43C3.67 10.5 5.02 8.73 6.6 7.18C9.12 4.63 12.17 2.65 15.54 1.4Z" /><path id="路径 29"  style="fill:#FF725E" transform="translate(349.7906086888512 199.18504978919006)  rotate(0 15.240000000000009 8.120322747271445)" opacity="1" d="" /><path id="路径 30" fill-rule="evenodd" style="fill:#263238" transform="translate(349.79060868885125 199.01890040852604)  rotate(0 15.23999999999998 8.203867405634554)" opacity="1" d="M29.99,15.05C29.42,13.84 28.75,12.68 27.99,11.59C22.9,4.16 14.41,-0.2 5.41,0.01C4.07,0.02 2.73,0.16 1.41,0.41C0.93,0.47 0.46,0.59 0,0.76C0.01,0.87 2.05,0.37 5.39,0.37C14.22,0.38 22.5,4.63 27.66,11.8C29.61,14.51 30.38,16.46 30.48,16.41C30.37,15.94 30.2,15.48 29.99,15.05Z " /><g opacity="0.30000000000000004" transform="translate(260.1268532260313 216.39569528373292)  rotate(0 11.406877731409935 24.934999999999974)"><path id="路径 31" fill-rule="evenodd" style="fill:#000000" transform="translate(0 0)  rotate(0 11.406877731409935 24.934999999999974)" opacity="1" d="M6.38,18.28C5.52,23.61 6.68,29.07 9.64,33.58C11.69,32.43 13.33,30.69 14.36,28.58C13.98,36.48 16.87,44.18 22.36,49.87L18.82,36.06C17.55,31.06 16.32,26.81 16.66,21.68C17.02,16.2 20.28,11.58 22.81,7.04C19.33,8.55 15.3,15.39 11.87,19.56C11.46,12.21 14.44,5.07 19.96,0.2L20.2,0C12.94,1.16 3.7,6.65 0.33,13.16C-0.39,14.55 0.27,14.74 0.33,16.3C0.34,17.9 1.25,19.37 2.69,20.07C3.42,20.36 4.23,20.34 4.94,20C5.64,19.65 6.17,19.03 6.38,18.28Z " /></g><path id="路径 32" fill-rule="evenodd" style="fill:#263238" transform="translate(270.7321226827011 215.38569528373299)  rotate(0 7.199243003075054 18.61499999999998)" opacity="1" d="M13.72 5.9C10.89 8.43 8.21 11.13 5.68 13.96C4.15 15.71 2.78 17.6 1.59 19.59C1.33 15.83 2.07 12.06 3.73 8.67C5.2 5.59 7.39 2.91 10.12 0.85L11.28 0L9.94 0.51C9.93 0.51 9.91 0.52 9.9 0.52C9.89 0.52 9.89 0.53 9.88 0.53C7.88 1.31 6.05 2.46 4.5 3.94C3.32 5.06 2.31 6.35 1.5 7.76C0.98 8.65 0.56 9.59 0.23 10.57C0.12 10.9 0.06 11.16 0.01 11.34C0 11.43 0 11.51 0.01 11.6C0.16 11.27 0.28 10.94 0.39 10.6C0.76 9.66 1.21 8.74 1.73 7.87C2.55 6.5 3.56 5.26 4.73 4.17C5.92 3.06 7.27 2.14 8.72 1.44C6.44 3.37 4.57 5.75 3.26 8.45C1.41 12.16 0.66 16.33 1.1 20.45L1.19 21.23L1.58 20.54C2.85 18.32 4.34 16.23 6.03 14.3C7.75 12.37 9.55 10.5 11.41 8.7C9.53 11.29 8.1 14.19 7.18 17.28C6.12 20.72 5.69 24.33 5.93 27.93C6.07 30.29 6.53 32.63 7.28 34.87C7.52 35.64 7.81 36.24 7.96 36.64C8.03 36.85 8.12 37.04 8.24 37.23C8.2 37.02 8.15 36.81 8.09 36.6C7.97 36.19 7.71 35.61 7.49 34.82C6.81 32.57 6.41 30.25 6.3 27.91C6.11 24.35 6.56 20.79 7.64 17.4C8.96 13.11 11.28 9.19 14.4 5.96L14.05 5.6C14.04 5.61 14.02 5.62 14.01 5.63L13.99 5.61C13.9 5.71 13.81 5.8 13.72 5.9Z" /><path id="路径 33" fill-rule="evenodd" style="fill:#FF725E" transform="translate(160.32060868885122 245.94569528373293)  rotate(0 14.150405632867432 7.243941390741696)" opacity="1" d="M25.54 9.19C26.49 9.34 27.66 9.34 28.14 8.52C28.42 7.79 28.33 6.97 27.91 6.31C26.91 4.17 25.91 2.06 24.73 0L10.98 3.12C10.64 2.87 10.3 2.61 9.97 2.35L10.56 3.22L0 5.61C3.93 9.97 9.1 13.02 14.81 14.35C15.44 14.6 16.16 14.5 16.7 14.09C17.28 13.45 16.8 12.44 16.32 11.73L10.56 3.22L10.98 3.12C15.28 6.26 20.27 8.34 25.54 9.19Z" /><path id="路径 34" fill-rule="evenodd" style="fill:#263238" transform="translate(160.33060868885124 245.90569528373297)  rotate(0 14.24705400172256 7.3557213159187995)" opacity="1" d="M16.35 14.08C15.73 14.4265 14.8855 14.1827 14.097 13.955C14.0207 13.933 13.945 13.9112 13.87 13.89C13.02 13.65 12.2 13.4 11.42 13.11C9.97 12.58 8.57 11.94 7.23 11.19C5.28 10.1 3.46 8.8 1.8 7.31C1.21 6.78 0.77 6.35 0.48 6.05C0.34 5.89 0.18 5.75 0 5.62C0.12 5.8 0.25 5.97 0.4 6.13C0.66 6.46 1.09 6.9 1.66 7.46C3.28 9.03 5.09 10.39 7.05 11.51C8.4 12.29 9.81 12.96 11.27 13.51C12.05 13.81 12.88 14.07 13.75 14.32C14.19 14.42 14.61 14.56 15.08 14.64C15.59 14.77 16.13 14.72 16.6 14.48C17.1 14.16 17.33 13.55 17.17 12.98C17.04 12.47 16.82 12 16.52 11.57L14.83 9.08L11.29 3.84L11.06 3.5C13.79 5.45 16.79 6.99 19.98 8.05C21.57 8.59 23.2 9 24.85 9.28C25.61 9.47 26.4 9.51 27.17 9.39C27.56 9.31 27.91 9.1 28.17 8.79C28.4 8.48 28.52 8.1 28.49 7.71C28.41 7.06 28.19 6.44 27.86 5.88Q27.455 5.085 27.08 4.38C26.6 3.47 26.19 2.67 25.83 2L25.03 0.5C24.95 0.32 24.84 0.15 24.72 0C24.77 0.19 24.85 0.38 24.95 0.55L25.67 2.09L26.84 4.5C27.07 5.01 27.32 5.48 27.58 6.01C27.88 6.54 28.07 7.12 28.14 7.73C28.18 8.37 27.72 8.93 27.09 9.01C26.37 9.11 25.63 9.06 24.93 8.87C19.52 7.87 14.44 5.56 10.13 2.15L8.76 1.11L9.76 2.51L10.86 4.14C12.08 5.93 13.26 7.68 14.41 9.38C14.99 10.22 15.55 11.05 16.1 11.86C16.37 12.23 16.57 12.64 16.69 13.08C16.82 13.45 16.68 13.86 16.35 14.08Z" /><g opacity="0.30000000000000004" transform="translate(184.0006086888512 188.4856952837329)  rotate(0 11.280000000000001 7.2658150973527995)"><path id="路径 35" fill-rule="evenodd" style="fill:#000000" transform="translate(0 0)  rotate(0 11.280000000000001 7.2658150973527995)" opacity="1" d="M0,0C0.5,5.15 3.45,9.74 7.92,12.35C12.39,14.95 17.83,15.24 22.56,13.14C17.09,11.13 12.09,8.02 7.87,4C9.24,5.55 10.09,7.49 10.31,9.54C6.44,7.6 3.2,4.58 0.99,0.85L0,0Z " /></g><g opacity="0.30000000000000004" transform="translate(158.2306086888512 111.70569528373292)  rotate(0 84.30061150265402 19.871978436622726)"><path id="路径 36" fill-rule="evenodd" style="fill:#000000" transform="translate(0 0)  rotate(0 84.30061150265402 19.871978436622726)" opacity="1" d="M123.66,25C104.05,29.57 83.66,29.47 63.55,28.54C41.42,27.54 18.19,25.1 0,12.45L0,12.46C7.94,27.73 33.62,35.27 53.76,35.6C59.98,35.69 68.76,40.29 74.92,39.69C88.75,38.36 99.98,30.91 113.84,29.69C122.47,28.96 131.15,28.69 139.68,27.24C148.21,25.79 147.82,24.78 154.6,19.39C161.38,14 168.71,8.66 168.6,0C155.86,15.6 143.27,20.43 123.66,25Z " /></g><path id="路径 37" fill-rule="evenodd" style="fill:#FF725E" transform="translate(226.49244565250234 7.045695283732954)  rotate(0 3.704081518174462 9.215000000000003)" opacity="1" d="M6.83,17.88C7.18,18.26 7.41,18.43 7.41,18.43C6.89,17.59 6.34,16.77 5.74,15.99C4.42,14.02 3.32,11.92 2.43,9.73C1.56,7.53 0.92,5.25 0.53,2.92C0.23,1.13 0.15,0 0.06,0C0,0.25 -0.01,0.51 0.01,0.76C0.02,1.49 0.07,2.21 0.17,2.93C0.45,5.33 1.05,7.68 1.95,9.93C2.84,12.16 4.02,14.27 5.44,16.2C5.87,16.79 6.33,17.35 6.83,17.88Z " /><path id="路径 38" fill-rule="evenodd" style="fill:#FF725E" transform="translate(231.30030889633758 4.5466343653018555)  rotate(0 1.619031511759431 9.101773433546)" opacity="1" d="M3.23,18.2C3.31,18.16 2.76,17.25 2.12,15.67C1.29,13.62 0.77,11.46 0.59,9.26C0.42,7.05 0.59,4.84 1.08,2.68C1.47,1.01 1.87,0.01 1.78,0.01C1.75,-0.05 1.62,0.19 1.41,0.67C1.13,1.29 0.9,1.93 0.72,2.59C-0.52,6.98 -0.15,11.68 1.77,15.82C2.06,16.44 2.39,17.04 2.77,17.61C3.04,18.01 3.15,18.24 3.23,18.2Z " /><path id="路径 39" fill-rule="evenodd" style="fill:#FF725E" transform="translate(110.6906086888512 157.46379503891072)  rotate(0 25.970000000000013 6.646613164786402)" opacity="1" d="M51.94,0.01C51.75,0 51.57,0 51.38,0.01L49.78,0.01C48.4,0.01 46.4,0.03 43.92,0.09C37.45,0.21 31,0.85 24.64,2.01C18.26,3.17 12.11,5.39 6.47,8.59C4.77,9.57 3.15,10.68 1.61,11.9C1.06,12.28 0.67,12.66 0.4,12.9C0.25,13.02 0.12,13.15 0,13.29C0.03,13.32 0.63,12.84 1.74,11.95C3.31,10.8 4.95,9.75 6.65,8.79C12.3,5.72 18.41,3.57 24.74,2.41C31.08,1.29 37.49,0.62 43.93,0.41L49.79,0.16L51.38,0.08C51.57,0.08 51.76,0.06 51.94,0.01Z " /><path id="路径 40" fill-rule="evenodd" style="fill:#FF725E" transform="translate(234.88114638812607 6.665557039636809)  rotate(0 9.579731150362562 8.080069122048073)" opacity="1" d="M9.72,0C7.6,-0.01 5.53,0.56 3.72,1.66C2.79,2.25 1.97,3.01 1.33,3.91C0.75,4.76 0.35,5.72 0.15,6.73C-0.13,8.43 -0.02,10.16 0.47,11.81C0.77,12.91 1.16,13.98 1.61,15.03C1.75,15.43 1.93,15.81 2.16,16.16C2.26,16.12 1.52,14.48 0.83,11.72C0.41,10.12 0.33,8.45 0.62,6.82C0.82,5.88 1.2,4.99 1.75,4.2C2.36,3.37 3.12,2.66 4,2.11C5.73,1.06 7.71,0.49 9.73,0.48C11.39,0.47 13.05,0.67 14.67,1.07C17.45,1.75 19.16,2.32 19.16,2.23C18.78,2.02 18.38,1.85 17.97,1.72C17.21,1.47 16.11,1.09 14.72,0.72C13.09,0.26 11.41,0.02 9.72,0Z " /><path id="路径 41" fill-rule="evenodd" style="fill:#FF725E" transform="translate(349.3406086888512 237.8947745957838)  rotate(0 27.41480522936007 17.7454603439746)" opacity="1" d="M44.12,3.26C38.11,-0.83 29.46,-1.31 23.74,3.18L0,35.28L50.54,35.49C53.36,32.88 55.3,25.4 54.73,21.6C53.65,14.42 50.13,7.35 44.12,3.26Z " /><g opacity="0.30000000000000004" transform="translate(360.4406086888512 238.2324092150997)  rotate(0 11.881571141809474 17.26164303431665)"><path id="路径 42" fill-rule="evenodd" style="fill:#000000" transform="translate(0 0)  rotate(0 11.881571141809474 17.26164303431665)" opacity="1" d="M19.38,24.67C21.32,20.47 22.17,15.87 23.02,11.32C23.72,7.55 24.38,3.48 22.74,0C21.94,-0.04 21.18,0.34 20.74,1C20.3,1.67 19.98,2.4 19.79,3.17C15.88,15.51 9.85,26.17 0,34.52L10.02,34.48C14.29,32.7 17.44,28.87 19.38,24.67Z " /></g><g opacity="0.30000000000000004" transform="translate(136.6606086888512 21.96569528373294)  rotate(0 44.46465577191478 44.8959927581255)"><path id="路径 43" fill-rule="evenodd" style="fill:#FFFFFF" transform="translate(0 0)  rotate(0 44.46465577191478 44.8959927581255)" opacity="1" d="M85.56,67.64C87.93,60.43 88.5,52.77 88.77,45.19C89.31,30 88.68,14.41 83.68,0C74.56,2.97 65.87,7.16 57.87,12.45C47.55,19.39 45.04,21.02 31.26,34.34C18.65,46.54 10.54,47.4 10.54,47.4L0,46.25C0.94,54.38 5.6,62.65 11.28,68.57C16.96,74.49 24.01,78.89 31.33,82.57C37.74,85.79 44.5,88.52 51.62,89.46C58.74,90.4 66.28,89.41 72.38,85.64C78.84,81.64 83.19,74.85 85.56,67.64Z " /></g><g opacity="0.30000000000000004" transform="translate(262.0806086888512 107.06439302868128)  rotate(0 14.189999999999998 7.145651127525809)"><path id="路径 44" fill-rule="evenodd" style="fill:#000000" transform="translate(0 0)  rotate(0 14.189999999999998 7.145651127525809)" opacity="1" d="M0,5.09C1.52,3.97 3.65,4.78 5.27,5.78C9.18,8.1 12.73,10.96 15.82,14.29C15.51,10.95 17.29,7.69 19.76,5.42C22.35,3.28 25.25,1.56 28.38,0.33C23.12,-0.84 17.66,1.15 14.38,5.43C11.05,2.11 5.92,1.41 1.82,3.72L0,5.09Z " /></g><path id="路径 45"  style="fill:#FF725E" transform="translate(284.7190519733327 223.44569528373293)  rotate(0 6.810778357759261 18.909999999999968)" opacity="1" d="" /><path id="路径 46" fill-rule="evenodd" style="fill:#263238" transform="translate(284.50953373686656 223.4823619503995)  rotate(0 6.910537475992328 18.89166666666671)" opacity="1" d="M1.59,36.22C1.76,36.74 1.93,37.12 2.03,37.39C2.08,37.53 2.14,37.66 2.22,37.78C2.11,37.25 1.96,36.72 1.78,36.2C1.37,34.75 1.05,33.28 0.83,31.78C-0.72,21.79 2.4,11.63 9.29,4.22C10.31,3.11 11.4,2.07 12.55,1.09C12.99,0.75 13.42,0.39 13.82,0C13.81,-0.02 13.66,0.05 13.44,0.21C13.22,0.37 12.86,0.6 12.44,0.93C11.22,1.84 10.08,2.84 9.03,3.93C1.89,11.32 -1.29,21.67 0.48,31.79C0.73,33.3 1.1,34.78 1.59,36.22Z " /><path id="路径 47" fill-rule="evenodd" style="fill:#FF725E" transform="translate(291.43715749614734 183.87613712275757)  rotate(0 22.871291118382345 34.98887981689694)" opacity="1" d="M5.9,40.44C3.23,45.54 0.35,50.73 0.02,56.44C-0.31,62.15 2.86,68.53 8.44,69.76C14.42,71.07 19.9,66.25 23.75,61.49C34.37,48.37 41.67,32.88 45.02,16.34C45.74,13.5 45.92,10.56 45.56,7.66C45.16,4.72 43.39,2.15 40.79,0.72C36.16,-1.49 30.88,1.81 26.79,4.95L26.76,4.91C18.4,15.28 12.24,28.44 5.9,40.44Z " /><path id="路径 48" fill-rule="evenodd" style="fill:#263238" transform="translate(291.315844411256 183.69679605538485)  rotate(0 23.069124662443045 35.1684730754904)" opacity="1" d="M32.86,1.46C33.98,0.94 35.17,0.57 36.38,0.37C37.83,0.13 39.31,0.31 40.65,0.88C43.58,2.07 45.64,5.64 45.76,9.57C45.81,11.65 45.61,13.73 45.15,15.77C44.73,17.92 44.21,20.12 43.61,22.39C40.88,32.58 36.65,42.31 31.04,51.25C29.46,53.67 27.84,56.11 26.04,58.47C24.3,60.91 22.33,63.19 20.17,65.28C18.07,67.39 15.43,68.9 12.53,69.65C11.12,69.94 9.66,69.9 8.26,69.54C6.9,69.17 5.64,68.48 4.59,67.54C2.57,65.61 1.21,63.09 0.7,60.34C0.23,57.7 0.37,54.98 1.11,52.4C2.5,47.32 5.17,42.98 7.29,38.78L13.29,27.14C16.18,21.51 19.37,16.05 22.85,10.78C24.11,8.93 25.14,7.52 25.85,6.58L26.65,5.51C26.75,5.39 26.84,5.26 26.91,5.13C26.83,5.24 26.76,5.35 26.68,5.46L25.83,6.46C25.1,7.38 24.04,8.77 22.76,10.61C19.21,15.85 15.96,21.29 13.04,26.91C11.18,30.46 9.08,34.34 6.96,38.52C4.84,42.7 2.14,47.04 0.71,52.22C-0.06,54.87 -0.21,57.66 0.28,60.38C0.79,63.23 2.19,65.85 4.28,67.86C5.39,68.87 6.72,69.61 8.16,70.01C9.63,70.4 11.17,70.44 12.66,70.14C15.65,69.38 18.38,67.83 20.55,65.65C22.73,63.54 24.72,61.23 26.48,58.76C28.29,56.38 29.92,53.94 31.48,51.5C37.09,42.51 41.32,32.74 44.03,22.5C44.62,20.22 45.12,18 45.55,15.84C46,13.77 46.19,11.66 46.12,9.55C46.06,7.61 45.52,5.71 44.55,4.03C42.95,1.09 39.64,-0.48 36.34,0.13C35.11,0.34 33.9,0.73 32.77,1.28C31.22,2.03 29.75,2.94 28.37,3.98C27.89,4.33 27.54,4.6 27.3,4.8L26.95,5.09C26.95,5.09 27.09,5.01 27.33,4.84L28.43,4.06C29.83,3.06 31.31,2.19 32.86,1.46Z " /><g opacity="0.30000000000000004" transform="translate(318.3222835332408 198.1590551799238)  rotate(0 7.4038316505370005 6.326971881425322)"><path id="路径 49" fill-rule="evenodd" style="fill:#000000" transform="translate(0 0)  rotate(0 7.4038316505370005 6.326971881425322)" opacity="1" d="M13.4,11.86C14.02,11.09 14.41,10.18 14.55,9.21C15.12,6.46 14.85,3.22 12.73,1.38C10.89,-0.22 8.12,-0.31 5.83,0.52C3.54,1.35 1.41,2.16 0.41,4.98L0.41,4.93C-0.11,6.08 -0.14,7.4 0.33,8.58C1.03,10.28 2.83,11.25 4.64,10.9C5.92,10.58 7.32,9.59 8.38,10.03C9.44,10.47 9.75,11.92 10.75,12.47C11.67,12.86 12.74,12.62 13.4,11.86Z " /></g><g opacity="0.30000000000000004" transform="translate(319.8966117539112 188.95192998001718)  rotate(0 2.3889276995749924 4.281882651857842)"><path id="路径 50" fill-rule="evenodd" style="fill:#000000" transform="translate(0 0)  rotate(0 2.3889276995749924 4.281882651857842)" opacity="1" d="M0.02 5.99C0.05 6.59 0.21 7.17 0.49 7.69C0.8 8.22 1.35 8.55 1.95 8.56C3.01 8.52 3.6 7.41 3.95 6.41C4.44 5.26 4.71 4.02 4.76 2.76C4.88 1.67 4.31 0.63 3.34 0.12L3.75 0.32C3.18 -0.11 2.39 -0.11 1.82 0.32C1.27 0.75 0.86 1.33 0.64 1.99C0.14 3.26 -0.08 4.63 0.02 5.99ZM3.34 0.12C3.29 0.1 3.24 0.08 3.19 0.05L3.34 0.12Z" /></g><g opacity="0.30000000000000004" transform="translate(331.8771539232722 191.40937047934287)  rotate(0 2.3886566148945008 4.283162402195018)"><path id="路径 51" fill-rule="evenodd" style="fill:#000000" transform="translate(0 0)  rotate(0 2.3886566148945008 4.283162402195018)" opacity="1" d="M0.02 6C0.04 6.59 0.2 7.18 0.49 7.7C0.79 8.22 1.35 8.55 1.95 8.57C3 8.53 3.6 7.42 3.95 6.42C4.44 5.26 4.71 4.02 4.76 2.77C4.87 1.67 4.31 0.63 3.34 0.13L3.75 0.33C3.18 -0.11 2.39 -0.11 1.82 0.33C1.27 0.75 0.86 1.33 0.63 2C0.13 3.27 -0.07 4.63 0.02 6Z" /></g><g opacity="0.30000000000000004" transform="translate(326.822790490536 186.84317309418955)  rotate(0 2.3849947731709165 4.276261094771684)"><path id="路径 52" fill-rule="evenodd" style="fill:#000000" transform="translate(0 0)  rotate(0 2.3849947731709165 4.276261094771684)" opacity="1" d="M0.49 7.68C0.79 8.21 1.34 8.54 1.95 8.55C3 8.52 3.59 7.4 3.95 6.4C4.43 5.25 4.7 4.01 4.76 2.76C4.86 1.68 4.3 0.64 3.36 0.13L3.75 0.32C3.59 0.2 3.41 0.12 3.23 0.06L3.19 0.04C3.19604 0.0460432 3.20574 0.0520864 3.21467 0.0559226C2.73916 -0.0682719 2.23564 0.0132977 1.83 0.32C1.27 0.75 0.86 1.33 0.64 1.99C0.13 3.26 -0.08 4.63 0.03 5.99C0.04 6.58 0.2 7.16 0.49 7.68ZM3.21467 0.0559226C3.22052 0.0584344 3.22604 0.06 3.23 0.06C3.22489 0.0586171 3.21978 0.057258 3.21467 0.0559226Z" /></g><g opacity="0.30000000000000004" transform="translate(291.469050715307 227.76569528373292)  rotate(0 17.330778986772117 17.62128545908857)"><path id="路径 53" fill-rule="evenodd" style="fill:#000000" transform="translate(0 0)  rotate(0 17.330778986772117 17.62128545908857)" opacity="1" d="M7.57,25.41C4.11,24 1.96,20.6 0.05,17.41C-0.13,21.35 0.09,25.45 1.87,28.98C3.65,32.51 7.25,35.34 11.2,35.24C13.99,35.17 16.57,33.69 18.77,31.97C23.53,28.11 27.31,23.16 29.77,17.55C32.22,11.96 33.86,6.05 34.66,0L34.43,0.71C31.78,6.93 28.26,12.74 23.97,17.97C22.04,20.55 19.62,22.74 16.86,24.41C14.06,26.08 10.67,26.45 7.57,25.41Z " /></g><path id="路径 54" fill-rule="evenodd" style="fill:#FF725E" transform="translate(85.30169919291484 188.14023117214495)  rotate(0 30.609424609720946 28.66999064705402)" opacity="1" d="M48.85,27.42C38.71,18.42 28.33,8.24 16.85,1.42L16.86,1.49C11.94,-0.02 5.86,-1.27 2.24,2.43C0.32,4.68 -0.43,7.72 0.24,10.61C0.91,13.45 2.12,16.15 3.78,18.56C12.72,32.87 24.97,44.83 39.5,53.42C44.77,56.52 51.59,59.12 56.73,55.79C61.54,52.69 62.26,45.6 59.96,40.37C57.66,35.14 53.16,31.25 48.85,27.42Z " /><path id="路径 55" fill-rule="evenodd" style="fill:#263238" transform="translate(85.15154474094268 188.0326819527065)  rotate(0 30.813060505515722 28.814848013929748)" opacity="1" d="M37.72,17.16C33.02,12.92 28.07,8.96 22.91,5.29C21.06,4.02 19.57,3.09 18.57,2.48L17.42,1.8C17.15,1.65 17.01,1.59 17.01,1.59L17.43,1.84L18.56,2.56C19.55,3.2 21.01,4.15 22.83,5.45C27.94,9.18 32.85,13.18 37.52,17.45L47.24,26.24C50.69,29.43 54.71,32.56 57.79,36.84C59.4,38.99 60.49,41.49 60.96,44.13C61.45,46.88 61.06,49.72 59.84,52.23C59.2,53.5 58.27,54.59 57.12,55.42C55.93,56.26 54.56,56.81 53.12,57.03C50.15,57.35 47.15,56.86 44.44,55.61C41.68,54.41 39.04,52.97 36.55,51.29C34.04,49.73 31.66,48.02 29.36,46.29C20.98,39.88 13.6,32.26 7.47,23.67C6.12,21.75 4.87,19.86 3.71,18C2.57,16.26 1.65,14.38 0.97,12.41C-0.29,8.69 0.38,4.63 2.71,2.48C3.77,1.47 5.09,0.77 6.53,0.48C7.74,0.25 8.98,0.17 10.21,0.26C11.92,0.41 13.61,0.71 15.27,1.15L16.57,1.49L17.01,1.6L16.58,1.44C16.3,1.34 15.87,1.21 15.3,1.05C13.64,0.56 11.95,0.23 10.23,0.05C8.98,-0.06 7.72,0 6.48,0.23C3.18,0.82 0.64,3.45 0.16,6.76C-0.16,8.68 0,10.64 0.62,12.48C1.3,14.49 2.22,16.4 3.37,18.17C4.52,20.04 5.77,21.95 7.12,23.88C10.02,27.99 13.22,31.88 16.68,35.52C20.48,39.55 24.6,43.27 28.98,46.66C31.29,48.39 33.68,50.11 36.2,51.71C38.73,53.4 41.41,54.87 44.2,56.08C47.01,57.37 50.12,57.87 53.2,57.52C54.71,57.29 56.14,56.71 57.38,55.82C58.59,54.94 59.57,53.79 60.26,52.45C61.52,49.84 61.92,46.89 61.41,44.03C60.92,41.32 59.8,38.75 58.14,36.54C54.99,32.19 50.94,29.07 47.49,25.9L37.72,17.16Z " /><g opacity="0.30000000000000004" transform="translate(93.23906559778055 200.8604017875518)  rotate(0 7.376322677191965 6.792660930414229)"><path id="路径 56" fill-rule="evenodd" style="fill:#000000" transform="translate(0 0)  rotate(0 7.376322677191965 6.792660930414229)" opacity="1" d="M11.52,9.34C13.33,9.03 14.68,7.49 14.75,5.66C14.78,4.41 14.32,3.2 13.46,2.29C11.53,0 9.26,-0.02 6.82,0.01C4.38,0.04 1.82,1.1 0.66,3.23C-0.68,5.71 0.2,8.83 1.66,11.23C2.12,12.09 2.81,12.81 3.66,13.3C4.54,13.79 5.63,13.64 6.35,12.95C7.1,12.08 6.89,10.63 7.71,9.83C8.53,9.03 10.22,9.48 11.52,9.34Z " /></g><g opacity="0.30000000000000004" transform="translate(96.87356747979396 191.20840096228804)  rotate(0 2.9950721314980626 3.949861593670505)"><path id="路径 57" fill-rule="evenodd" style="fill:#000000" transform="translate(0 0)  rotate(0 2.9950721314980626 3.949861593670505)" opacity="1" d="M2.1 0.06C1.41 -0.13 0.68 0.16 0.31 0.77L0.78 0.3C-0.03 1.11 -0.23 2.35 0.28 3.38C0.75 4.53 1.43 5.59 2.28 6.51C2.95 7.3 3.91 8.16 4.89 7.83C5.45 7.6 5.85 7.1 5.95 6.5C6.04 5.91 5.99 5.31 5.8 4.75C5.41 3.43 4.72 2.22 3.8 1.21C3.36 0.66 2.77 0.26 2.1 0.06Z" /></g><g opacity="0.30000000000000004" transform="translate(86.52472548150197 197.7084009622881)  rotate(0 2.9979530613722076 3.949861593670448)"><path id="路径 58" fill-rule="evenodd" style="fill:#000000" transform="translate(0 0)  rotate(0 2.9979530613722076 3.949861593670448)" opacity="1" d="M5.96,6.5C6.04,5.91 5.99,5.31 5.8,4.75C5.41,3.43 4.72,2.22 3.8,1.21C3.36,0.66 2.77,0.26 2.1,0.06C1.41,-0.13 0.68,0.16 0.31,0.77L0.8,0.29C-0.02,1.1 -0.23,2.34 0.28,3.38C0.75,4.53 1.43,5.59 2.28,6.51C2.96,7.3 3.91,8.16 4.9,7.83C5.46,7.6 5.86,7.09 5.96,6.5Z " /></g><g opacity="0.30000000000000004" transform="translate(89.66472548150196 191.64840096228804)  rotate(0 2.9979530613722005 3.9498615936704766)"><path id="路径 59" fill-rule="evenodd" style="fill:#000000" transform="translate(0 0)  rotate(0 2.9979530613722005 3.9498615936704766)" opacity="1" d="M2.28,6.51C2.96,7.3 3.91,8.16 4.9,7.83C5.46,7.6 5.86,7.09 5.96,6.5C6.04,5.91 5.99,5.31 5.8,4.75C5.41,3.43 4.72,2.22 3.8,1.21C3.36,0.66 2.77,0.26 2.1,0.06C1.41,-0.13 0.68,0.16 0.31,0.77L0.8,0.29C-0.02,1.1 -0.23,2.34 0.28,3.38C0.75,4.53 1.43,5.59 2.28,6.51Z " /></g><g opacity="0.30000000000000004" transform="translate(108.46060868885121 228.85569528373296)  rotate(0 20.429093930238466 12.645611015040345)"><path id="路径 60" fill-rule="evenodd" style="fill:#000000" transform="translate(0 0)  rotate(0 20.429093930238466 12.645611015040345)" opacity="1" d="M0.41,0.6L0,0C2.86,5.38 6.46,10.32 10.69,14.7C14.95,19.1 20.2,22.42 26,24.38C28.66,25.23 31.59,25.71 34.23,24.8C37.97,23.51 40.34,19.6 40.77,15.67C41.2,11.74 40,7.81 38.42,4.19C37.75,7.85 36.93,11.79 34.17,14.29C31.66,16.35 28.37,17.2 25.17,16.63C22,16.03 18.97,14.84 16.25,13.1C10.41,9.7 5.08,5.49 0.41,0.6Z " /></g><g opacity="0.30000000000000004" transform="translate(102.56060868885123 216.4421323918797)  rotate(0 16.698897948424843 13.891781445926597)"><path id="路径 61" fill-rule="evenodd" style="fill:#FFFFFF" transform="translate(0 0)  rotate(0 16.698897948424843 13.891781445926597)" opacity="1" d="M2.14 7L0 7.63C8.48 16.33 18.66 23.19 29.9 27.78C33.74 22.69 34.48 15.89 31.81 10.09C29.14 4.29 23.5 0.43 17.13 0.03C11.25 -0.33 5.62 2.32 2.14 7Z" /></g><path id="路径 62" fill-rule="evenodd" style="fill:#263238" transform="translate(360.3706086888513 213.55569528373294)  rotate(0 13.345948423089169 29.53499999999994)" opacity="1" d="M24.85,9.56C23.37,17.24 21.27,24.78 18.56,32.12C17.02,36.13 15.18,40.03 13.05,43.76C12.51,44.61 12.01,45.41 11.51,46.21C11.26,46.61 11.02,47 10.77,47.38L9.98,48.46L8.47,50.52L6.95,52.31C6.46,52.87 6.03,53.45 5.54,53.92L4.19,55.26L3.02,56.44L1.96,57.34L0.49,58.6C0.31,58.74 0.15,58.9 0,59.07C0.2,58.97 0.39,58.84 0.56,58.69L2.09,57.49L3.19,56.62L4.4,55.47L5.78,54.14C6.28,53.68 6.73,53.11 7.23,52.55C7.73,51.99 8.26,51.4 8.79,50.77L10.33,48.72L11.14,47.63L11.9,46.46C12.4,45.66 12.95,44.86 13.46,44C15.65,40.26 17.53,36.35 19.09,32.3C21.8,24.93 23.85,17.33 25.21,9.59C25.76,6.66 26.15,4.26 26.38,2.59C26.48,1.8 26.57,1.17 26.64,0.67C26.68,0.45 26.7,0.22 26.69,0C26.62,0.22 26.57,0.44 26.53,0.66C26.44,1.15 26.32,1.78 26.18,2.56C25.85,4.23 25.44,6.62 24.85,9.56Z " /><path id="路径 63" fill-rule="evenodd" style="fill:#263238" transform="translate(157.0006086888512 120.32569528373281)  rotate(0 28.124999999999986 16.285000000000053)" opacity="1" d="M26.24,13.04C22.32,15.32 18.69,17.61 15.48,19.91C12.27,22.21 9.46,24.32 7.17,26.21C6.01,27.13 5.01,28.04 4.11,28.79C3.21,29.54 2.46,30.22 1.85,30.79L0.46,32.09C0.29,32.23 0.13,32.39 0,32.57C0.18,32.46 0.34,32.32 0.49,32.17L1.95,30.94C2.57,30.39 3.35,29.75 4.26,29C5.17,28.25 6.19,27.38 7.36,26.48C9.71,24.63 12.48,22.51 15.71,20.29C18.94,18.07 22.46,15.71 26.46,13.47C30.46,11.23 34.24,9.19 37.76,7.52C41.28,5.85 44.53,4.44 47.28,3.35C48.65,2.78 49.91,2.3 51.01,1.91C52.11,1.52 53.06,1.18 53.84,0.91L55.64,0.26C55.85,0.19 56.05,0.1 56.25,0C56.03,0.03 55.82,0.08 55.61,0.16L53.78,0.72C52.99,0.96 52.02,1.29 50.91,1.67C49.8,2.05 48.53,2.5 47.15,3.05C44.37,4.12 41.09,5.44 37.55,7.12C34.01,8.8 30.16,10.76 26.24,13.04Z " /><path id="路径 64" fill-rule="evenodd" style="fill:#263238" transform="translate(128.8506086888512 110.25434462955306)  rotate(0 42.16500000000002 12.971553719954471)" opacity="1" d="M83.42,0.01L80.82,0.08C79.7,0.11 78.3,0.18 76.7,0.3C75.1,0.42 73.27,0.52 71.27,0.76L68.11,1.11C67.02,1.23 65.88,1.42 64.71,1.58C62.35,1.89 59.85,2.37 57.22,2.84C51.97,3.88 46.24,5.21 40.34,7.05C34.44,8.89 28.94,10.97 24.01,13.05C21.57,14.14 19.23,15.14 17.11,16.21C16.02,16.73 15.02,17.22 14.02,17.73L11.22,19.22C9.46,20.14 7.86,21.1 6.46,21.89C5.06,22.68 3.89,23.41 2.94,24.02L0.74,25.42L0.18,25.8C0.06,25.89 0,25.94 0,25.94C0,25.95 0.08,25.92 0.21,25.78L0.8,25.45L3.04,24.13C4.01,23.55 5.21,22.85 6.61,22.08C8.01,21.31 9.59,20.39 11.39,19.49L14.2,18.03C15.18,17.54 16.23,17.06 17.3,16.54C19.42,15.49 21.76,14.5 24.2,13.43C29.12,11.38 34.6,9.29 40.49,7.5C46.38,5.71 52.09,4.33 57.31,3.26C59.93,2.78 62.42,2.28 64.77,1.96C65.94,1.79 67.07,1.59 68.16,1.46L71.31,1.08C73.31,0.81 75.14,0.7 76.73,0.54C78.32,0.38 79.7,0.3 80.83,0.24L83.42,0.07L84.1,0.01L84.33,0.01C84.25,0 84.17,0 84.09,0.01L83.42,0.01Z " /><path id="路径 65" fill-rule="evenodd" style="fill:#263238" transform="translate(237.6506086888512 103.23569528373295)  rotate(0 5.185513115960958 3.4476349742243997)" opacity="1" d="M10.34,0C6.31,1.28 2.73,3.67 0,6.89C0.14,7.01 2.15,5.06 5,3.15C7.85,1.24 10.43,0.15 10.37,0L10.34,0Z " /><path id="路径 66" fill-rule="evenodd" style="fill:#263238" transform="translate(238.8406086888512 105.97228608830241)  rotate(0 13.050000000000011 2.936704597715277)" opacity="1" d="M22.27,1.13C19.05,0.19 15.69,-0.17 12.34,0.07C8.44,0.37 4.93,1.36 2.75,2.79C1.88,3.34 1.12,4.04 0.51,4.87C0.28,5.17 0.1,5.51 0,5.87C0.77,4.76 1.78,3.81 2.94,3.11C5.87,1.6 9.09,0.74 12.38,0.6C15.67,0.37 18.98,0.67 22.17,1.5C24.62,2.12 26.1,2.79 26.1,2.69C25.79,2.47 25.47,2.28 25.12,2.13C24.19,1.74 23.24,1.4 22.27,1.13Z " /><path id="路径 67" fill-rule="evenodd" style="fill:#F5F5F5" transform="translate(226.82060868885122 113.625695283733)  rotate(0 3.578874927652265 5.6735720334099256)" opacity="1" d="M1.63,0C1.93,1.76 1.32,3.55 0,4.75C0.51,5.81 0.79,6.97 1.21,8.07C1.56,9.19 2.26,10.18 3.21,10.88C4.21,11.56 5.54,11.49 6.47,10.71C7,10.09 7.24,9.28 7.13,8.47C7.01,7.68 6.78,6.9 6.43,6.18L5.26,3.38C2.64,3.2 1.63,0 1.63,0Z " /><path id="路径 68" fill-rule="evenodd" style="fill:#263238" transform="translate(215.7506086888512 99.1346869089027)  rotate(0 10.945000000000007 7.049148286961895)" opacity="1" d="M4.05,7.09L6.11,9.99C7.16,12.96 11.55,15.61 14.11,13.09C16.67,10.57 14.4,10.66 14.29,6.83C14.18,3 21.89,5.27 21.89,5.27C21.89,5.27 15.27,-1.41 8.89,0.27C5.02,1.38 1.79,4.06 0,7.67L4.05,7.09Z " /><path id="路径 69" fill-rule="evenodd" style="fill:#263238" transform="translate(219.72060868885126 110.55569528373294)  rotate(0 11.26264949813239 5.060942960343681)" opacity="1" d="M16.07 7.25C13.82 7.39 11.64 6.46 10.18 4.75C9.56 4.04 9.1 3.22 8.83 2.33C8.79 2.19 8.75 2.05 8.71 1.92L8.71 1.91C8.71 1.9 8.7 1.89 8.7 1.88L8.21 2.02C8.26 2.22 8.31 2.41 8.37 2.6C8.72 4.2 8.41 5.89 7.5 7.27C6.67 8.49 5.41 9.36 3.97 9.68C3.01 9.9 2.01 9.9 1.05 9.68C0.61043 9.57657 0.300398 9.47314 0.136113 9.41834C0.0462552 9.38836 0 9.37293 0 9.38C0 9.4 0.08 9.45 0.24 9.54C0.48 9.67 0.74 9.77 1 9.85C3.55 10.63 6.32 9.69 7.87 7.52C8.59 6.47 8.97 5.25 9.01 4.01C9.23 4.39 9.49 4.75 9.78 5.09C11.35 6.93 13.7 7.9 16.11 7.72C18.05 7.49 19.82 6.48 21 4.92C21.8 3.9 22.32 2.69 22.5 1.41Q22.545 0.885 22.5 0.36C22.45 0.13 22.45 0 22.45 0C22.4 0 22.43 0.53 22.3 1.37C22.06 2.59 21.51 3.73 20.72 4.69C19.57 6.13 17.9 7.05 16.07 7.25Z" /><path id="路径 70" fill-rule="evenodd" style="fill:#FFFFFF" transform="translate(217.75060868885123 100.0268272169894)  rotate(0 6.030000000000001 2.5398803675135184)" opacity="1" d="M10.07,0.04C8.4,-0.08 6.73,0.08 5.12,0.53C3.49,0.99 2.03,1.93 0.94,3.23C0.46,3.74 0.13,4.39 0,5.08C0.08,5.11 0.38,4.38 1.21,3.47C2.33,2.32 3.73,1.48 5.27,1.03C6.83,0.6 8.44,0.39 10.06,0.41C10.73,0.45 11.4,0.42 12.06,0.32C11.42,0.12 10.74,0.03 10.07,0.04Z " /><path id="路径 71" fill-rule="evenodd" style="fill:#263238" transform="translate(228.49060868885113 114.47569528373296)  rotate(0 1.6272344584772043 5.359999999999985)" opacity="1" d="M1.58,5.37C0.68,2.42 0.15,0 0,0C0.09,1.88 0.46,3.74 1.08,5.52C1.55,7.35 2.28,9.1 3.24,10.72C3.38,10.66 2.48,8.32 1.58,5.37Z " /><path id="路径 72" fill-rule="evenodd" style="fill:#263238" transform="translate(160.5306086888512 116.66070599034649)  rotate(0 24 9.873865890912896)" opacity="1" d="M6.23,15.23C4.24,16.53 2.61,17.64 1.61,18.45L0.4,19.39C0.26,19.5 0.12,19.62 0,19.74C0.01,19.76 0.17,19.67 0.5,19.49L1.77,18.64C2.86,17.88 4.45,16.82 6.46,15.56C8.47,14.3 10.89,12.87 13.67,11.42C16.45,9.97 19.54,8.46 22.89,7.1C26.24,5.74 29.48,4.59 32.48,3.68C35.48,2.77 38.17,2.07 40.48,1.55C42.79,1.03 44.67,0.65 45.98,0.43L47.48,0.15C47.66,0.13 47.83,0.09 48,0.01C47.82,0 47.65,0 47.47,0.01L45.95,0.2C44.63,0.4 42.73,0.77 40.4,1.2C38.07,1.63 35.31,2.29 32.3,3.2C29.29,4.11 26.02,5.23 22.66,6.6C19.3,7.97 16.18,9.47 13.41,10.97C10.64,12.47 8.22,13.93 6.23,15.23Z " /><path id="路径 73" fill-rule="evenodd" style="fill:#F5F5F5" transform="translate(166.15331585061324 64.57370923742567)  rotate(-76.59 22.55 22.55)" opacity="1" d="M22.55,0C10.1,0 0,10.1 0,22.55C0,35 10.1,45.1 22.55,45.1C35,45.1 45.1,35 45.1,22.55C45.1,10.1 35,0 22.55,0Z " /><path id="路径 74" fill-rule="evenodd" style="fill:#263238" transform="translate(186.4606086888512 67.43569528373294)  rotate(0 12.405000000000001 19.715000000000003)" opacity="1" d="M11.28,0C5,0 0,8.84 0,19.72C0,30.6 5.02,39.43 11.24,39.43C17.46,39.43 24.81,30.6 24.81,19.72C24.81,8.83 17.56,0 11.28,0Z " /><path id="路径 75" fill-rule="evenodd" style="fill:#FFFFFF" transform="translate(198.8406086888512 72.14569528373292)  rotate(0 3.86 3.86)" opacity="1" d="M3.86,0C1.73,0 0,1.73 0,3.86C0,5.99 1.73,7.72 3.86,7.72C5.99,7.72 7.72,5.99 7.72,3.86C7.72,1.73 5.99,0 3.86,0Z " /><path id="路径 76" fill-rule="evenodd" style="fill:#FFFFFF" transform="translate(189.18041548727737 74.495695283733)  rotate(0 1.7739125892137082 13.48999999999998)" opacity="1" d="M1.03,18.86C0.72,17.09 0.55,15.3 0.52,13.5C0.51,11.7 0.65,9.91 0.92,8.13C1.16,6.68 1.49,5.25 1.92,3.85C2.66,1.45 3.35,0 3.26,0C3.04,0.31 2.86,0.64 2.72,1C2.27,1.89 1.88,2.82 1.57,3.77C1.08,5.18 0.71,6.62 0.45,8.09C0.14,9.89 -0.01,11.72 0,13.55C0.03,15.38 0.22,17.2 0.56,18.99C0.85,20.45 1.25,21.89 1.77,23.29C2.1,24.24 2.51,25.15 2.98,26.04C3.13,26.38 3.32,26.69 3.54,26.98C3.63,26.94 2.91,25.55 2.12,23.13C1.66,21.73 1.29,20.31 1.03,18.86Z " /><path id="路径 77" fill-rule="evenodd" style="fill:#263238" transform="translate(169.90267463406784 56.35508971914467)  rotate(0 6.5455603552235715 3.9495483678478536)" opacity="1" d="M10.95,0.25C8.97,-0.22 6.9,-0.03 5.05,0.79C3.11,1.54 1.5,2.96 0.52,4.79C-0.21,6.24 -0.13,7.33 0.52,7.72C1.17,8.11 2.07,7.81 3.17,7.31C4.27,6.81 5.56,6.23 7.03,5.56C8.5,4.89 9.99,4.41 11.09,3.89C12.19,3.37 13.03,2.81 13.09,2.08C13.15,1.38 12.36,0.63 10.95,0.25Z " /><path id="路径 78" fill-rule="evenodd" style="fill:#FF725E" transform="translate(75.3706086888512 127.86569528373289)  rotate(0 108.09375315168772 76.63449044188343)" opacity="1" d="M130.57,144.31C188.74,125.92 207.74,75.31 207.74,75.31C226.25,32.61 208.57,0 208.57,0L202.47,0L208.57,19.16C208.57,19.16 211.05,70.9 180.38,101.52C108.97,172.81 29.21,141.27 5.07,114.75L0,122.69C0,122.69 38.81,173.29 130.57,144.31Z " /><g opacity="0.7" transform="translate(75.3706086888512 127.86569528373289)  rotate(0 108.09375315168772 76.63449044188343)"><path id="路径 79" fill-rule="evenodd" style="fill:#FFFFFF" transform="translate(0 0)  rotate(0 108.09375315168772 76.63449044188343)" opacity="1" d="M130.57,144.31C188.74,125.92 207.74,75.31 207.74,75.31C226.25,32.61 208.57,0 208.57,0L202.47,0L208.57,19.16C208.57,19.16 211.05,70.9 180.38,101.52C108.97,172.81 29.21,141.27 5.07,114.75L0,122.69C0,122.69 38.81,173.29 130.57,144.31Z " /></g><path id="路径 80" fill-rule="evenodd" style="fill:#FF725E" transform="translate(0 186.25513797214902)  rotate(-45 43.35 43.35)" opacity="1" d="M43.35,0C19.41,0 0,19.41 0,43.35C0,67.29 19.41,86.7 43.35,86.7C67.29,86.7 86.7,67.29 86.7,43.35C86.7,19.41 67.29,0 43.35,0Z " /><g opacity="0.7" transform="translate(0 186.25513797214902)  rotate(0 43.349999999999994 43.349999999999994)"><path id="路径 81" fill-rule="evenodd" style="fill:#FFFFFF" transform="translate(0 0)  rotate(-45 43.35 43.35)" opacity="1" d="M43.35,0C19.41,0 0,19.41 0,43.35C0,67.29 19.41,86.7 43.35,86.7C67.29,86.7 86.7,67.29 86.7,43.35C86.7,19.41 67.29,0 43.35,0Z " /></g><path id="路径 82" fill-rule="evenodd" style="fill:#FF725E" transform="translate(7.410608688851198 187.46569528373297)  rotate(0 23.16500000000001 32.71000000000001)" opacity="1" d="M44.72,6.86C44.92,6.13 45.14,5.47 45.28,4.86C45.42,4.25 45.55,3.68 45.67,3.17C45.88,2.18 46.06,1.4 46.18,0.82C46.26,0.55 46.31,0.28 46.33,0C46.23,0.25 46.15,0.51 46.09,0.77C45.94,1.34 45.74,2.09 45.48,3.09C45.35,3.6 45.22,4.14 45.05,4.77C44.88,5.4 44.66,6.06 44.45,6.77C44,8.17 43.56,9.8 42.88,11.54C42.56,12.41 42.23,13.35 41.88,14.28C41.53,15.21 41.09,16.21 40.67,17.21C39.87,19.24 38.83,21.33 37.77,23.55C35.35,28.3 32.6,32.88 29.55,37.25C26.45,41.57 23.06,45.66 19.39,49.51C17.68,51.24 16.05,52.92 14.39,54.35C13.58,55.08 12.82,55.81 12.03,56.46L9.77,58.3C8.34,59.51 6.95,60.47 5.77,61.36C5.17,61.79 4.63,62.21 4.11,62.58L2.67,63.58L0.67,64.92C0.44,65.07 0.21,65.24 0,65.42C0.26,65.31 0.5,65.17 0.73,65.01L2.73,63.75L4.2,62.82C4.73,62.47 5.28,62.06 5.89,61.63C7.05,60.76 8.46,59.83 9.89,58.63L12.18,56.8C12.97,56.16 13.75,55.43 14.57,54.71C16.25,53.29 17.89,51.62 19.66,49.89C23.38,46.03 26.82,41.91 29.95,37.56C33.02,33.17 35.76,28.56 38.17,23.77C39.22,21.54 40.26,19.43 41.04,17.38C41.45,16.36 41.88,15.43 42.22,14.43L43.22,11.67C43.88,9.92 44.29,8.28 44.72,6.86Z " /><path id="路径 83" fill-rule="evenodd" style="fill:#FF725E" transform="translate(13.130608688851218 191.88569528373293)  rotate(0 25.43 33.82499999999999)" opacity="1" d="M15.58,56.54C14.69,57.27 13.86,58.03 13,58.67L10.55,60.5C9.01,61.72 7.49,62.67 6.22,63.58C4.95,64.49 3.81,65.2 2.87,65.78L0.73,67.14C0.47,67.29 0.23,67.46 0,67.65C0.27,67.53 0.53,67.39 0.78,67.23L2.98,65.95C3.93,65.4 5.08,64.67 6.38,63.82C7.68,62.97 9.21,62.03 10.76,60.82L13.25,58.97C14.12,58.34 14.96,57.59 15.86,56.86C17.68,55.42 19.5,53.72 21.42,51.95C25.51,48.03 29.3,43.81 32.75,39.32C36.15,34.78 39.19,29.99 41.85,24.98C43.02,22.65 44.15,20.44 45.02,18.29C45.47,17.19 45.96,16.19 46.33,15.19L47.4,12.28C48.13,10.45 48.58,8.71 49.05,7.22C49.28,6.47 49.51,5.78 49.67,5.13C49.83,4.48 49.98,3.88 50.11,3.34C50.36,2.3 50.55,1.48 50.69,0.87C50.77,0.59 50.83,0.29 50.86,0C50.75,0.28 50.66,0.57 50.58,0.87C50.41,1.47 50.19,2.31 49.9,3.31C49.76,3.85 49.61,4.44 49.43,5.08C49.25,5.72 49,6.41 48.76,7.16C48.26,8.62 47.79,10.33 47.04,12.16C46.69,13.04 46.26,14.03 45.94,15.04C45.62,16.05 45.07,17.05 44.62,18.11C43.73,20.25 42.59,22.44 41.41,24.76C38.74,29.73 35.71,34.49 32.33,39C28.89,43.47 25.14,47.69 21.09,51.62C19.18,53.39 17.39,55.09 15.58,56.54Z " /><path id="路径 84" fill-rule="evenodd" style="fill:#FF725E" transform="translate(20.28060868885119 199.67569528373295)  rotate(0 26.590000000000014 33.60499999999999)" opacity="1" d="M53.18,0C53.06,0.25 52.96,0.51 52.88,0.78C52.68,1.38 52.4,2.2 52.05,3.2C51.87,3.73 51.69,4.31 51.46,4.95C51.23,5.59 50.96,6.27 50.67,7C50.1,8.5 49.51,10.2 48.67,12C48.27,12.9 47.9,13.85 47.42,14.85C46.94,15.85 46.45,16.85 45.94,17.85C44.94,19.96 43.69,22.11 42.42,24.41C39.54,29.31 36.34,34.02 32.84,38.5C29.28,42.94 25.43,47.14 21.32,51.07C19.39,52.83 17.57,54.54 15.75,55.99C14.84,56.73 14,57.47 13.14,58.13C12.28,58.79 11.45,59.41 10.65,60.01C9.09,61.24 7.58,62.2 6.29,63.11C5.64,63.55 5.04,63.98 4.47,64.34L2.9,65.34L0.74,66.7C0.48,66.85 0.23,67.02 0,67.21C0.27,67.09 0.54,66.95 0.79,66.79L3.01,65.51L4.6,64.57C5.18,64.22 5.79,63.8 6.45,63.37C7.76,62.53 9.29,61.58 10.87,60.37L13.38,58.51C14.26,57.86 15.11,57.12 16.02,56.39C17.87,54.94 19.65,53.24 21.65,51.47C25.8,47.55 29.68,43.34 33.25,38.88C36.74,34.37 39.92,29.64 42.76,24.7C44.02,22.39 45.24,20.21 46.24,18.09C46.75,17.03 47.27,16.03 47.7,15.03L48.93,12.16C49.8,10.34 50.37,8.63 50.93,7.16C51.2,6.41 51.49,5.72 51.68,5.08C51.87,4.44 52.06,3.85 52.22,3.32C52.53,2.28 52.78,1.47 52.96,0.86C53.06,0.58 53.13,0.29 53.18,0Z " /><path id="路径 85" fill-rule="evenodd" style="fill:#FF725E" transform="translate(62.18060868885123 227.19569528373293)  rotate(0 11.324999999999996 6.805000000000007)" opacity="1" d="M19.3,11.62C17.24,10.44 14.36,8.82 11.24,6.91C8.12,5 5.31,3.28 3.31,2L0.92,0.5C0.64,0.29 0.33,0.13 0,0C0.24,0.25 0.51,0.47 0.8,0.66C1.34,1.07 2.11,1.63 3.11,2.31C5.08,3.67 7.82,5.48 10.97,7.36C14.12,9.24 17,10.84 19.12,11.94C20.18,12.49 21.05,12.93 21.65,13.21C21.96,13.39 22.3,13.52 22.65,13.61C22.38,13.37 22.08,13.18 21.75,13.03L19.3,11.62Z " /><path id="路径 86" fill-rule="evenodd" style="fill:#FF725E" transform="translate(66.50060868885126 219.05569528373294)  rotate(0 10.08140624999998 6.185000000000002)" opacity="1" d="M3,1.76C4.88,2.8 7.49,4.22 10.26,5.92C13.03,7.62 15.49,9.26 17.26,10.47C18.18,11.17 19.15,11.8 20.16,12.37C20.19,12.35 19.98,12.13 19.53,11.74C19.08,11.35 18.39,10.82 17.53,10.17C15.77,8.88 13.34,7.18 10.53,5.48C7.72,3.78 5.09,2.43 3.17,1.43C2.21,0.95 1.43,0.58 0.88,0.34C0.6,0.19 0.31,0.07 0,0C0.96,0.66 1.96,1.25 3,1.76Z " /><path id="路径 87" fill-rule="evenodd" style="fill:#FF725E" transform="translate(58.88966655454488 233.23569528373295)  rotate(0 0.5618843789050771 17.75999999999999)" opacity="1" d="M0.82,17.75C0.54,7.94 0.2,0 0.06,0C-0.08,0 0.03,7.96 0.3,17.77C0.57,27.58 0.91,35.52 1.06,35.52C1.2,35.52 1.1,27.56 0.82,17.75Z " /><path id="路径 88" fill-rule="evenodd" style="fill:#FF725E" transform="translate(38.28594222405621 253.86569528373244)  rotate(0 0.2929645618205967 9.930000000000263)" opacity="1" d="M0.55,9.93C0.64,6.62 0.55,3.3 0.29,0C0.03,3.3 -0.06,6.62 0.03,9.93C-0.06,13.24 0.03,16.56 0.29,19.86C0.55,16.56 0.64,13.24 0.55,9.93Z " /><path id="路径 89" fill-rule="evenodd" style="fill:#FF725E" transform="translate(48.90045315479863 243.52569528373297)  rotate(0 0.2787216834429316 14.514999999999986)" opacity="1" d="M0.54,14.52C0.59,6.5 0.53,0 0.38,0C0.23,0 0.08,6.51 0.02,14.52C-0.04,22.53 0.04,29.03 0.18,29.03C0.32,29.03 0.49,22.54 0.54,14.52Z " /><path id="路径 90" fill-rule="evenodd" style="fill:#FF725E" transform="translate(1.9397530504782736 220.55126740991093)  rotate(0 12.490857162686535 8.398651971385817)" opacity="1" d="M12.64,8.16C5.74,3.53 0.08,-0.15 0,0C-0.08,0.15 5.46,4 12.35,8.63C19.24,13.26 24.9,16.91 24.98,16.79C25.06,16.67 19.54,12.79 12.64,8.16Z " /><path id="路径 91" fill-rule="evenodd" style="fill:#FF725E" transform="translate(0.0906086888512121 231.6556952837329)  rotate(0 9.64 5.950000000000017)" opacity="1" d="M2.57,2.12C4.19,3.36 6.53,5.03 9.19,6.71C11.45,8.14 13.79,9.45 16.19,10.62C17.12,11.07 17.89,11.41 18.42,11.62C18.69,11.76 18.98,11.85 19.28,11.9C18.35,11.3 17.39,10.76 16.4,10.27C14.59,9.32 12.15,7.94 9.47,6.27C6.79,4.6 4.48,2.99 2.79,1.82C1.9,1.15 0.97,0.54 0,0C0.79,0.78 1.65,1.49 2.57,2.12Z " /><path id="路径 92" fill-rule="evenodd" style="fill:#FF725E" transform="translate(4.640608688851216 210.04569528373295)  rotate(0 20.375000000000004 2.0777619783158627)" opacity="1" d="M1.51,0.64C1.99,0.84 2.61,1.05 3.32,1.28C4.03,1.51 4.84,1.77 5.75,2C7.88,2.58 10.04,3.04 12.22,3.38C14.89,3.78 17.59,4.03 20.29,4.13C22.99,4.2 25.7,4.12 28.39,3.88C30.59,3.68 32.77,3.35 34.93,2.88C35.85,2.69 36.67,2.46 37.39,2.26C38.01,2.1 38.63,1.91 39.23,1.69C39.75,1.54 40.26,1.35 40.75,1.11C40.2,1.18 39.66,1.31 39.14,1.49C38.64,1.64 38.01,1.8 37.29,1.97C36.57,2.14 35.75,2.35 34.82,2.51C32.66,2.92 30.48,3.22 28.29,3.4C25.63,3.61 22.96,3.68 20.29,3.61C17.61,3.51 14.94,3.28 12.29,2.91C9.84,2.52 7.66,2.12 5.84,1.65C4.93,1.44 4.12,1.19 3.4,1C2.68,0.81 2.07,0.62 1.57,0.45C1.06,0.26 0.53,0.11 0,0C0.48,0.26 0.99,0.47 1.51,0.64Z " /><path id="路径 93" fill-rule="evenodd" style="fill:#FF725E" transform="translate(9.760608688851214 199.93569528373294)  rotate(0 20.21 2.434761712680938)" opacity="1" d="M1.52,2.77C2.12,2.99 2.72,3.17 3.34,3.32C4.06,3.51 4.88,3.73 5.81,3.89C7.96,4.32 10.14,4.61 12.33,4.75C15.01,4.91 17.71,4.91 20.39,4.75C23.07,4.57 25.74,4.23 28.39,3.75C30.55,3.34 32.68,2.81 34.78,2.17C35.67,1.91 36.47,1.62 37.17,1.37C37.87,1.12 38.47,0.9 38.95,0.68C39.46,0.49 39.95,0.27 40.42,0C39.89,0.09 39.37,0.23 38.87,0.41C38.38,0.6 37.78,0.78 37.07,1.01C36.36,1.24 35.56,1.5 34.66,1.74C32.88,2.26 30.71,2.73 28.3,3.2C25.67,3.67 23.02,4 20.36,4.2C17.7,4.37 15.03,4.39 12.36,4.27C10.18,4.15 8.02,3.9 5.87,3.53C4.95,3.39 4.13,3.18 3.41,3.03C2.69,2.88 2.07,2.73 1.58,2.58C1.07,2.4 0.54,2.27 0,2.19C0.49,2.42 1,2.62 1.52,2.77Z " /><path id="路径 94" fill-rule="evenodd" style="fill:#FF725E" transform="translate(17.360608688851215 190.05569528373294)  rotate(0 17.890000000000004 2.6933923099576305)" opacity="1" d="M30.65,1.44C26.53,2.59 22.33,3.48 18.1,4.11C13.87,4.71 9.6,5 5.33,4.96C3.68,4.94 2.35,4.9 1.44,4.85C0.96,4.81 0.48,4.81 0,4.85C0.47,4.97 0.94,5.04 1.42,5.07C2.32,5.18 3.67,5.28 5.32,5.35C9.62,5.49 13.93,5.24 18.19,4.62C22.45,4 26.65,3.06 30.76,1.79C32.33,1.31 33.6,0.88 34.46,0.55C34.92,0.42 35.36,0.23 35.78,0C35.31,0.08 34.84,0.2 34.39,0.36C33.51,0.63 32.23,1 30.65,1.44Z " /><path id="路径 95" fill-rule="evenodd" style="fill:#FF725E" transform="translate(59.180608688851 232.70569528373292)  rotate(0 5.740000000000109 6.280000000000115)" opacity="1" d="M5.55,6.1C3.57,8.14 1.72,10.3 0,12.56C2.1,10.64 4.08,8.6 5.93,6.45C7.91,4.41 9.76,2.26 11.48,0C9.38,1.91 7.4,3.95 5.55,6.1Z " /><path id="路径 96" fill-rule="evenodd" style="fill:#FF725E" transform="translate(61.070608688851216 237.6226174776206)  rotate(0 8.954999999999998 7.886538903056135)" opacity="1" d="M15.99,2.99C16.64,2.1 17.14,1.37 17.46,0.84C17.65,0.59 17.8,0.3 17.91,0C17.84,-0.07 17.07,1.06 15.68,2.78C13.91,4.99 11.95,7.05 9.84,8.93C7.7,10.78 5.41,12.46 3,13.93C1.16,15.07 0,15.7 0,15.77C0.31,15.7 0.61,15.59 0.89,15.43C1.45,15.18 2.2,14.78 3.2,14.25C8.22,11.45 12.58,7.61 15.99,2.99Z " /><path id="路径 97" fill-rule="evenodd" style="fill:#FF725E" transform="translate(75.90060868885124 242.06569528373294)  rotate(0 2.8049999999999926 5)" opacity="1" d="M3.42,5.33C2.4,6.97 1.26,8.53 0,10C3.2,7.61 5.24,3.98 5.61,0C5.01,1.83 4.28,3.61 3.42,5.33Z " /><path id="路径 98" fill-rule="evenodd" style="fill:#FF725E" transform="translate(83.99060868885121 251.25569528373293)  rotate(0 2.9549999999999983 3.664999999999992)" opacity="1" d="M3.38,4C2.32,5.18 1.2,6.29 0,7.33C1.51,6.7 2.82,5.66 3.78,4.33C4.87,3.11 5.61,1.61 5.91,0C5.14,1.38 4.3,2.72 3.38,4Z " /><path id="路径 99" fill-rule="evenodd" style="fill:#FF725E" transform="translate(98.73060868885119 259.5556952837329)  rotate(0 2.3666694017586423 4.325000000000017)" opacity="1" d="M3,4.65C2.12,6.07 1.12,7.41 0,8.65C1.49,7.77 2.68,6.47 3.43,4.91C4.33,3.43 4.78,1.73 4.73,0C4.29,1.6 3.71,3.15 3,4.65Z " /><path id="路径 100" fill-rule="evenodd" style="fill:#FF725E" transform="translate(115.58060868885121 267.01569528373295)  rotate(0 1.8004373545324626 4.359999999999985)" opacity="1" d="M0,8.72C1.37,7.77 2.39,6.41 2.92,4.84C3.61,3.32 3.78,1.62 3.41,0C3.29,3.21 2.09,6.28 0,8.72Z " /><path id="路径 101" fill-rule="evenodd" style="fill:#FF725E" transform="translate(133.3067230221931 270.88569528373296)  rotate(0 0.5778495141188387 4.460000000000008)" opacity="1" d="M0.55,0C0.4,0.03 0.75,2.04 0.61,4.48C0.47,6.92 -0.13,8.87 0.02,8.92C1.32,6.12 1.51,2.93 0.55,0Z " /><path id="路径 102" fill-rule="evenodd" style="fill:#FF725E" transform="translate(145.0626806019081 272.465695283733)  rotate(0 0.6926900758588062 4.099999999999994)" opacity="1" d="M0.06,8.2C1.52,5.72 1.79,2.7 0.79,0C0.59,0.03 0.98,1.86 0.79,4.13C0.6,6.4 -0.12,8.14 0.02,8.2L0.06,8.2Z " /><path id="路径 103" fill-rule="evenodd" style="fill:#FF725E" transform="translate(160.55083589485412 273.115695283733)  rotate(0 0.7190232251262074 3.719999999999999)" opacity="1" d="M1.31,3.62C1.23,2.32 0.78,1.06 0.02,0C-0.12,0.06 0.52,1.63 0.79,3.68C1.06,5.73 0.82,7.44 0.97,7.44C1.44,6.22 1.56,4.9 1.31,3.62Z " /><path id="路径 104" fill-rule="evenodd" style="fill:#FF725E" transform="translate(170.9466952061453 272.735695283733)  rotate(0 1.0228192603954511 3.4099999999999966)" opacity="1" d="M0.01,0C-0.12,0.08 0.69,1.47 1.23,3.34C1.77,5.21 1.77,6.82 1.93,6.82C2.34,4.37 1.63,1.88 0.01,0Z " /><path id="路径 105" fill-rule="evenodd" style="fill:#FF725E" transform="translate(184.1185380803779 270.14569528373295)  rotate(0 1.1237985890754771 3.240000000000009)" opacity="1" d="M0.01,0C-0.12,0.12 0.83,1.33 1.42,3.12C2.01,4.91 1.93,6.48 2.09,6.48C2.61,4.1 1.82,1.63 0.01,0Z " /><path id="路径 106" fill-rule="evenodd" style="fill:#FF725E" transform="translate(199.99155737274253 266.095695283733)  rotate(0 1.3524443489758653 3.594999999999999)" opacity="1" d="M0.01,0C-0.11,0.1 0.99,1.46 1.72,3.45C2.45,5.44 2.47,7.19 2.63,7.19C3,4.51 2.02,1.82 0.01,0Z " /><path id="路径 107" fill-rule="evenodd" style="fill:#FF725E" transform="translate(212.19412479617634 260.6856952837329)  rotate(0 2.133241946337435 3.5999999999999943)" opacity="1" d="M0.01,0C-0.1,0.11 1.21,1.47 2.39,3.45C3.57,5.43 4.12,7.2 4.27,7.2C3.82,4.34 2.3,1.77 0.01,0Z " /><path id="路径 108" fill-rule="evenodd" style="fill:#FF725E" transform="translate(227.40580320876575 252.45569528373298)  rotate(0 2.262402740042745 3.6599999999999966)" opacity="1" d="M0,0C-0.1,0.12 1.38,1.4 2.64,3.42C3.9,5.44 4.37,7.32 4.52,7.32C4.19,4.33 2.53,1.64 0,0Z " /><path id="路径 109" fill-rule="evenodd" style="fill:#FF725E" transform="translate(241.8306086888512 242.93569528373283)  rotate(0 2.6049999999999898 3.0050000000000523)" opacity="1" d="M3.41,2.32C2.56,1.2 1.36,0.38 0,0C1.06,0.81 2.07,1.7 3,2.66C3.81,3.72 4.55,4.84 5.21,6.01C5.02,4.62 4.39,3.33 3.41,2.32Z " /><path id="路径 110" fill-rule="evenodd" style="fill:#FF725E" transform="translate(253.3878929194833 231.88569528373287)  rotate(0 3.2963578846839425 3.006802562205195)" opacity="1" d="M3.79,2.46C2.73,1.37 1.43,0.53 0,0C-0.08,0.14 1.62,1.21 3.44,2.85C5.26,4.49 6.46,6.1 6.59,6.01C5.93,4.64 4.97,3.43 3.79,2.46Z " /><path id="路径 111" fill-rule="evenodd" style="fill:#FF725E" transform="translate(265.229108677147 218.13569528373293)  rotate(0 3.170750005852142 2.680000000000007)" opacity="1" d="M0.667517 0.46329C0.235942 0.211102 -0.0237428 0.0593571 0 0C2.82 0.72 5.15 2.69 6.34 5.35C6.28459 5.36847 6.11457 5.16181 5.83398 4.82074C5.35493 4.23845 4.55358 3.2644 3.45 2.35C2.38646 1.46774 1.32657 0.848401 0.667517 0.46329Z" /><path id="路径 112" fill-rule="evenodd" style="fill:#FF725E" transform="translate(274.11060868885124 202.0455530742636)  rotate(0 3.894999999999982 2.1450711047346545)" opacity="1" d="M4.39,1.24C3.07,0.42 1.55,-0.01 0,0C1.41,0.49 2.79,1.05 4.14,1.69C5.4,2.49 6.62,3.36 7.79,4.29C6.97,2.97 5.79,1.91 4.39,1.24Z " /><path id="路径 113" fill-rule="evenodd" style="fill:#FF725E" transform="translate(279.2606086888512 185.33664992318248)  rotate(0 4.460000000000008 1.2345226802752336)" opacity="1" d="M0,0.37C3.12,0.17 6.22,0.9 8.92,2.47C6.52,0.26 3.14,-0.54 0,0.37Z " /><path id="路径 114" fill-rule="evenodd" style="fill:#FF725E" transform="translate(283.3806086888512 166.6838040326347)  rotate(0 3.7949999999999875 0.6233526121292527)" opacity="1" d="M0,0.38C0.02,0.58 1.73,0.36 3.82,0.58C5.91,0.8 7.54,1.37 7.59,1.22C5.27,-0.03 2.54,-0.34 0,0.38Z " /><path id="路径 115" fill-rule="evenodd" style="fill:#FF725E" transform="translate(284.27060868885127 147.56776522141942)  rotate(0 2.8349999999999795 0.33790046524259765)" opacity="1" d="M0,0.67C0.95,0.7 1.89,0.65 2.83,0.53C3.78,0.57 4.73,0.53 5.67,0.41C3.81,-0.21 1.79,-0.12 0,0.67Z " /><path id="路径 116" fill-rule="evenodd" style="fill:#FF725E" transform="translate(280.0206086888512 133.46573384985064)  rotate(0 2.9210892767877965 0.7199807169411656)" opacity="1" d="M5.01,0.31C4.3,0.04 3.54,-0.05 2.78,0.03C2.02,0.11 1.3,0.37 0.66,0.78C0.18,1.1 0,1.39 0,1.44C0.91,1.04 1.86,0.74 2.84,0.55C3.85,0.52 4.85,0.61 5.84,0.82C5.87,0.76 5.59,0.52 5.01,0.31Z " /><g opacity="0.30000000000000004" transform="translate(217.4606086888512 176.99569528373294)  rotate(0 29.971510704190678 18.720286987331946)"><path id="路径 117" fill-rule="evenodd" style="fill:#000000" transform="translate(0 0)  rotate(0 29.971510704190678 18.720286987331946)" opacity="1" d="M27.08,37.24C37.42,35.98 46.63,29.55 53.08,21.35C57.83,15.29 61.35,7.44 59.39,0C48.75,22.12 22.84,32.28 0,23.3L0.58,24.56C5.43,33.77 16.74,38.5 27.08,37.24Z " /></g><path id="路径 118" fill-rule="evenodd" style="fill:#FF725E" transform="translate(275.8897084854006 69.82569528373293)  rotate(0 12.777106719307511 26.24000000000001)" opacity="1" d="M14,31.3C19.54,28.59 23.58,23.54 25,17.54C26.42,11.53 25.08,5.21 21.34,0.3L21.1,0L18.32,1.37C20.3,5.14 21.24,9.37 21.05,13.62C20.82,17.9 18.88,21.91 15.65,24.74C13.04,26.9 9.71,27.97 6.95,29.97C-0.27,35.12 -2.16,45.04 2.67,52.48L6.12,41.3C6.12,41.3 4.7,37.89 8.17,34.89C9.96,33.46 11.92,32.26 14,31.3Z " /><g opacity="0.7" transform="translate(275.8897084854006 69.82569528373293)  rotate(0 12.777106719307511 26.24000000000001)"><path id="路径 119" fill-rule="evenodd" style="fill:#FFFFFF" transform="translate(0 0)  rotate(0 12.777106719307511 26.24000000000001)" opacity="1" d="M14,31.3C19.54,28.59 23.58,23.54 25,17.54C26.42,11.53 25.08,5.21 21.34,0.3L21.1,0L18.32,1.37C20.3,5.14 21.24,9.37 21.05,13.62C20.82,17.9 18.88,21.91 15.65,24.74C13.04,26.9 9.71,27.97 6.95,29.97C-0.27,35.12 -2.16,45.04 2.67,52.48L6.12,41.3C6.12,41.3 4.7,37.89 8.17,34.89C9.96,33.46 11.92,32.26 14,31.3Z " /></g><path id="路径 120" fill-rule="evenodd" style="fill:#FF725E" transform="translate(275.6806086888512 110.46277010381826)  rotate(0 3.390000000000015 0.7364625899573127)" opacity="1" d="M0,1.47C1.08,1.04 2.2,0.73 3.34,0.54C4.49,0.52 5.65,0.62 6.78,0.84C4.63,-0.48 1.87,-0.23 0,1.47Z " /><path id="路径 121" fill-rule="evenodd" style="fill:#FF725E" transform="translate(282.04852811513524 100.58095453078082)  rotate(0 1.5320761863184202 1.54839934544907)" opacity="1" d="M2,1.08C1.09,0.16 0.05,-0.11 0,0.03C-0.05,0.17 0.81,0.63 1.63,1.45C2.45,2.27 2.89,3.14 3.03,3.09C3.16,3.05 2.91,2 2,1.08Z " /><path id="路径 122" fill-rule="evenodd" style="fill:#FF725E" transform="translate(292.02655845449556 94.34160560384228)  rotate(0 1.4566891019746606 1.7679717611572698)" opacity="1" d="M2,1.34C1.12,0.28 0.07,-0.11 0,0.02C-0.07,0.15 0.78,0.71 1.57,1.66C2.36,2.61 2.72,3.58 2.86,3.53C3,3.51 2.88,2.4 2,1.34Z " /><path id="路径 123" fill-rule="evenodd" style="fill:#FF725E" transform="translate(296.9106086888512 84.5242893169191)  rotate(0 2.2750000000000057 0.4557029834069226)" opacity="1" d="M0,0.31C0.75,0.46 1.51,0.54 2.28,0.56C3.03,0.74 3.78,0.86 4.55,0.91C3.23,-0.04 1.52,-0.26 0,0.31Z " /><path id="路径 124" fill-rule="evenodd" style="fill:#FF725E" transform="translate(295.719809072901 73.1643659134219)  rotate(0 1.7560418634162716 0.6341513742040092)" opacity="1" d="M1.58,0.13C0.51,0.43 -0.09,1.14 0.01,1.25C0.11,1.36 0.8,0.91 1.73,0.63C2.66,0.35 3.51,0.4 3.51,0.25C3.55,0.12 2.65,-0.17 1.58,0.13Z " /><path id="路径 125" fill-rule="evenodd" style="fill:#FF725E" transform="translate(206.67060868885122 111.22288279356795)  rotate(0 38.26437782743203 46.32484512897065)" opacity="1" d="M49.22,87.45C60.72,81.23 69.19,70.11 73.31,57.7C77.43,45.29 77.38,31.72 74.38,19C73.08,13.48 71.1,7.88 67,4C62.9,0.12 56.28,-1.53 51.51,1.75C46.74,5.03 45.89,11.54 44.23,17.08C42.59,22.53 39.8,27.55 36.06,31.83C33.03,35.29 29.1,38.35 24.51,38.78C20.3,39.18 16.27,37.34 12.25,36.01C8.23,34.68 3.54,33.92 0,36.22L11.52,88.74C23.22,94.56 37.72,93.67 49.22,87.45Z " /><path id="路径 126" fill-rule="evenodd" style="fill:#263238" transform="translate(206.67060868885116 111.04108646847308)  rotate(0 38.36753986096967 46.496474221172434)" opacity="1" d="M66.69,3.62C65.29,2.41 63.68,1.47 61.94,0.84C60.24,0.21 58.42,-0.07 56.61,0.01C54.83,0.1 53.11,0.65 51.61,1.6C50.15,2.56 48.93,3.85 48.06,5.36C46.29,8.3 45.56,11.58 44.73,14.63C44.01,17.63 42.97,20.53 41.62,23.3C40.36,25.88 38.82,28.32 37.03,30.56C35.42,32.66 33.51,34.52 31.37,36.08C29.44,37.51 27.19,38.44 24.81,38.78C22.68,38.99 20.53,38.77 18.48,38.14C14.62,37.03 11.4,35.57 8.56,35.14C6.4,34.68 4.16,34.77 2.04,35.4C1.5,35.59 0.98,35.83 0.49,36.11L0,36.42C0,36.42 0.18,36.34 0.52,36.15C1.02,35.89 1.54,35.67 2.08,35.5C4.18,34.93 6.39,34.87 8.52,35.34C11.33,35.79 14.51,37.27 18.4,38.42C20.48,39.08 22.68,39.31 24.85,39.11C27.28,38.77 29.6,37.83 31.58,36.38C33.75,34.81 35.69,32.94 37.34,30.81C39.16,28.55 40.73,26.1 42.01,23.49C43.37,20.7 44.43,17.77 45.17,14.75C46.01,11.69 46.75,8.45 48.47,5.61C49.31,4.17 50.47,2.94 51.87,2.01C53.32,1.11 54.97,0.59 56.68,0.51C60.24,0.4 63.72,1.65 66.39,4.01C69.1,6.53 71.14,9.68 72.33,13.18C73.6,16.78 74.54,20.49 75.14,24.25C76.44,31.68 76.61,39.26 75.62,46.73C74.7,53.69 72.56,60.44 69.28,66.64C66.31,72.26 62.35,77.3 57.59,81.51C53.45,85.21 48.67,88.1 43.47,90.04C41.21,90.89 38.89,91.53 36.52,91.96C34.41,92.37 32.27,92.62 30.12,92.7C26.68,92.83 23.23,92.52 19.86,91.79C18.47,91.48 17.25,91.2 16.22,90.79C15.19,90.38 14.32,90.06 13.62,89.79L12.06,89.11C11.88,89.03 11.7,88.96 11.52,88.89C11.52,88.89 11.69,88.99 12.02,89.24L13.56,89.97C14.25,90.26 15.1,90.67 16.15,90.97C17.2,91.27 18.4,91.67 19.79,91.97C23.17,92.74 26.64,93.08 30.11,92.97C32.27,92.9 34.43,92.67 36.56,92.27C38.94,91.85 41.29,91.21 43.56,90.37C48.8,88.45 53.64,85.57 57.83,81.87C62.65,77.63 66.66,72.55 69.66,66.87C72.98,60.62 75.15,53.82 76.08,46.8C77.09,39.28 76.93,31.65 75.61,24.17C75.01,20.37 74.05,16.63 72.77,12.99C71.55,9.42 69.46,6.2 66.69,3.62Z " /><path id="路径 127" fill-rule="evenodd" style="fill:#263238" transform="translate(258.92852952983577 112.37569528373294)  rotate(0 1.2444507100098292 6.164999999999992)" opacity="1" d="M1.43,10.61C0.17,7.76 0.22,4.51 1.56,1.7C2.07,0.64 2.55,0.06 2.48,0C1.95,0.4 1.52,0.93 1.23,1.53C0.44,2.94 0.02,4.52 0,6.13C-0.03,7.75 0.35,9.34 1.1,10.77C1.38,11.37 1.79,11.91 2.3,12.33C2.38,12.28 1.92,11.68 1.43,10.61Z " /><path id="路径 128" fill-rule="evenodd" style="fill:#263238" transform="translate(265.05576030678543 111.12569528373294)  rotate(0 1.1224241910328772 6.349999999999994)" opacity="1" d="M1.47,0C1.08,0.52 0.79,1.12 0.62,1.76C0.13,3.27 -0.08,4.87 0.02,6.46C0.12,8.05 0.51,9.61 1.18,11.06C1.43,11.67 1.79,12.23 2.24,12.7C0.24,8.76 -0.04,4.16 1.47,0Z " /><path id="路径 129" fill-rule="evenodd" style="fill:#263238" transform="translate(271.36705615896136 115.99569528373294)  rotate(0 0.5293038913362693 4.780000000000001)" opacity="1" d="M0.55,4.77C0.61,2.13 1.18,0.05 1.03,0C0.33,1.49 -0.01,3.12 0.03,4.76C-0.1,6.4 0.16,8.04 0.79,9.56C0.94,9.56 0.49,7.41 0.55,4.77Z " /><path id="路径 130" fill-rule="evenodd" style="fill:#FF725E" transform="translate(278.7571872939205 107.49212301693305)  rotate(0 38.44671069746536 35.626786133399946)" opacity="1" d="M46.09,30.07C36.61,25.06 29.43,16.67 23.44,7.87C21.74,5.37 20.02,2.72 17.38,1.21C12.19,-1.79 5.02,1.11 2.04,6.21C-0.94,11.31 -0.38,17.85 1.92,23.31C1.92,23.31 8.02,52.87 39.82,71.25L76.89,30.56C67.74,36.14 55.57,35.08 46.09,30.07Z " /><path id="路径 131" fill-rule="evenodd" style="fill:#263238" transform="translate(278.5353984251506 107.29684707559343)  rotate(0 38.557605131850266 35.73942410406977)" opacity="1" d="M1.93,23.59C3.02,27.83 4.55,31.95 6.49,35.88C8.21,39.49 10.22,42.96 12.49,46.26C16.24,51.74 20.65,56.75 25.6,61.18L28.6,63.75C29.54,64.58 30.54,65.21 31.41,65.88L33.86,67.67C34.61,68.23 35.37,68.63 36,69.05C37.31,69.83 38.3,70.45 39,70.88L39.78,71.34C39.86,71.4 39.95,71.45 40.05,71.48C40,71.41 39.94,71.35 39.89,71.3L39.14,70.8L36.21,68.9C35.58,68.5 34.83,68.07 34.09,67.5L31.66,65.68C30.81,65 29.82,64.37 28.89,63.53L25.89,60.94C20.98,56.51 16.61,51.5 12.89,46.04C10.62,42.75 8.61,39.3 6.89,35.7C4.97,31.79 3.46,27.7 2.39,23.49L2.39,23.44C0.91,20.03 0.29,16.32 0.59,12.62C0.86,8.7 2.85,5.1 6.03,2.79C8.36,1.09 11.23,0.3 14.11,0.56C15.49,0.72 16.82,1.19 18,1.95C19.13,2.73 20.14,3.68 21,4.77C21.87,5.84 22.64,6.99 23.41,8.12C24.18,9.25 24.96,10.37 25.75,11.46C27.34,13.64 28.97,15.7 30.66,17.64C33.82,21.35 37.43,24.66 41.4,27.5C44.86,29.98 48.71,31.87 52.79,33.11C58.68,35 65,35.15 70.98,33.52C71.47,33.39 71.97,33.23 72.45,33.04C72.9,32.87 73.32,32.73 73.71,32.56C74.47,32.2 75.12,31.93 75.62,31.65L76.75,31C76.87,30.93 77,30.85 77.12,30.76C76.98,30.81 76.84,30.87 76.72,30.95L75.57,31.56C75.07,31.82 74.41,32.08 73.65,32.42C73.27,32.58 72.84,32.71 72.39,32.87C71.91,33.05 71.42,33.2 70.93,33.32C64.99,34.85 58.75,34.65 52.93,32.76C48.89,31.51 45.09,29.61 41.66,27.15C37.73,24.32 34.16,21.02 31.03,17.33C29.36,15.4 27.74,13.33 26.16,11.16C25.38,10.08 24.59,8.97 23.83,7.84C23.07,6.71 22.29,5.55 21.4,4.45C20.51,3.32 19.46,2.33 18.28,1.52C17.04,0.72 15.63,0.21 14.17,0.04C9.02,-0.36 4.14,2.34 1.74,6.9C0.83,8.67 0.27,10.59 0.08,12.57C-0.23,16.36 0.4,20.16 1.93,23.64L1.93,23.59Z " /><path id="路径 132" fill-rule="evenodd" style="fill:#263238" transform="translate(280.9070972146696 113.09569528373291)  rotate(0 4.186755737090806 6.175000000000011)" opacity="1" d="M7.97,10.12C6.92,6.59 4.8,3.47 1.91,1.19C1.35,0.69 0.7,0.29 0,0C-0.12,0.14 2.86,1.98 5.2,5.48C6.55,7.62 7.62,9.93 8.37,12.35C8.37,11.59 8.23,10.83 7.97,10.12Z " /><path id="路径 133" fill-rule="evenodd" style="fill:#263238" transform="translate(288.8706086888512 107.81569528373294)  rotate(0 3.3283687069035466 6.810000000000002)" opacity="1" d="M6.52,11.33C6.25,9.49 5.7,7.71 4.9,6.04C4.09,4.37 3.03,2.83 1.75,1.48C1.25,0.9 0.66,0.4 0,0C1.74,1.89 3.23,3.99 4.43,6.26C5.47,8.61 6.2,11.08 6.59,13.62C6.7,12.86 6.67,12.08 6.52,11.33Z " /><g opacity="0.30000000000000004" transform="translate(238.69764928598119 175.80664705244547)  rotate(0 18.23851310080724 13.636498798957007)"><path id="路径 134" fill-rule="evenodd" style="fill:#FFFFFF" transform="translate(0 0)  rotate(0 18.23851310080724 13.636498798957007)" opacity="1" d="M23.8,0.14C10.09,1.71 -0.2,13.43 0,27.23C0,27.23 19.76,29.34 36.09,4.32C38.58,0.51 28.32,-0.39 23.8,0.14Z " /></g><g opacity="0.30000000000000004" transform="translate(291.4452893947308 154.35569528373296)  rotate(0 13.477659647060193 13.114410063803717)"><path id="路径 135" fill-rule="evenodd" style="fill:#000000" transform="translate(0 0)  rotate(0 13.477659647060193 13.114410063803717)" opacity="1" d="M22.1,25.76C23.04,26.17 24.08,26.31 25.1,26.18C26.13,26.03 26.91,25.16 26.96,24.11C16.27,18.29 7.1,10.03 0.22,0C-0.31,3.08 0.13,6.24 1.48,9.06L0.2,8.76C5.39,16.71 13.1,22.7 22.1,25.76Z " /></g><path id="路径 136" fill-rule="evenodd" style="fill:#F5F5F5" transform="translate(239.38702266408018 57.13921803709431)  rotate(-45 22.55 22.55)" opacity="1" d="M22.55,0C10.1,0 0,10.1 0,22.55C0,35 10.1,45.1 22.55,45.1C35,45.1 45.1,35 45.1,22.55C45.1,10.1 35,0 22.55,0Z " /><path id="路径 137" fill-rule="evenodd" style="fill:#263238" transform="translate(260.8306086888512 61.21569528373294)  rotate(0 11.814999999999998 19.709999999999994)" opacity="1" d="M11.54,0C5.17,0 0,8.83 0,19.71C0,30.59 5.17,39.42 11.54,39.42C17.91,39.42 23.63,30.31 23.63,19.42C23.63,8.54 17.91,0 11.54,0Z " /><path id="路径 138" fill-rule="evenodd" style="fill:#FFFFFF" transform="translate(264.1625601587128 68.7856952837329)  rotate(0 1.5876172477026103 10.600000000000023)" opacity="1" d="M1.53,18.18C0.8,15.71 0.46,13.14 0.53,10.56C0.6,7.98 1.09,5.43 1.97,3C2.65,1.12 3.25,0 3.17,0C2.97,0.21 2.8,0.46 2.68,0.72C2.27,1.4 1.91,2.11 1.62,2.85C-0.39,7.77 -0.53,13.25 1.21,18.27C1.47,19.02 1.78,19.75 2.14,20.46C2.25,20.73 2.41,20.98 2.6,21.2C2.69,21.16 2.14,20.05 1.53,18.18Z " /><path id="路径 139" fill-rule="evenodd" style="fill:#FFFFFF" transform="translate(271.3906086888512 64.42569528373295)  rotate(0 3.86 3.86)" opacity="1" d="M3.86,0C1.73,0 0,1.73 0,3.86C0,5.99 1.73,7.72 3.86,7.72C5.99,7.72 7.72,5.99 7.72,3.86C7.72,1.73 5.99,0 3.86,0Z " /><path id="路径 140" fill-rule="evenodd" style="fill:#263238" transform="translate(261.09102040641375 45.97366012409668)  rotate(0 7.806875578354351 3.1902489651821355)" opacity="1" d="M14.31,2.96C12.69,1.46 10.66,0.47 8.47,0.14C7.26,-0.05 6.02,-0.05 4.81,0.14C3.82,0.29 2.85,0.6 1.96,1.05C0.44,1.86 -0.21,2.83 0.06,3.51C0.33,4.19 1.37,4.46 2.72,4.65C4.07,4.84 5.75,5.02 7.61,5.32C9.47,5.62 11.19,6.02 12.56,6.24C13.93,6.46 15.02,6.47 15.45,5.88C15.86,5.31 15.51,4.2 14.31,2.96Z " /><path id="路径 141" fill-rule="evenodd" style="fill:#FF725E" transform="translate(264.6630705003976 84.23961033536878)  rotate(0 14.388769094226802 11.803042474182092)" opacity="1" d="M28.78,5.61C23.36,-0.58 14.2,-1.81 7.34,2.74C0.49,7.29 -1.94,16.21 1.66,23.61L28.78,5.61Z " /><path id="路径 142" fill-rule="evenodd" style="fill:#263238" transform="translate(264.57459575641906 84.13430590844192)  rotate(0 14.443006466216076 11.855694687645553)" opacity="1" d="M27.59,4.31C26.35,3.15 24.92,2.21 23.37,1.53C21.06,0.49 18.55,-0.03 16.03,0C9.64,-0.08 3.85,3.76 1.45,9.68C0.43,12 -0.06,14.51 0.01,17.04C0.03,18.75 0.34,20.44 0.93,22.04C1.08,22.47 1.27,22.89 1.48,23.3C1.54,23.45 1.61,23.58 1.71,23.71C1.76,23.69 1.48,23.09 1.12,21.97C0.62,20.38 0.37,18.73 0.37,17.06C0.36,14.59 0.88,12.15 1.89,9.9C4.26,4.17 9.88,0.45 16.09,0.51C18.55,0.46 21,0.93 23.28,1.89C24.81,2.54 26.24,3.41 27.52,4.49C28.41,5.26 28.89,5.71 28.89,5.71C28.79,5.56 28.67,5.43 28.54,5.31C28.24,4.96 27.93,4.62 27.59,4.31Z " /><path id="路径 143" fill-rule="evenodd" style="fill:#263238" transform="translate(176.1206086888512 22.45569528373295)  rotate(0 22.709999999999994 13.031156132144531)" opacity="1" d="M21.18,10.22C26.48,6.96 32.12,4.27 38,2.22L39.62,1.67L41.07,1.24C41.98,0.96 42.77,0.73 43.42,0.57L44.91,0.17C45.09,0.14 45.26,0.08 45.42,0C45.25,0.01 45.08,0.03 44.91,0.08L43.39,0.38C42.73,0.51 41.94,0.71 41.02,0.97L39.54,1.36L37.91,1.89C31.95,3.85 26.24,6.52 20.91,9.83C15.58,13.1 10.51,16.78 5.74,20.83C3.92,22.4 2.49,23.68 1.49,24.6L0.37,25.67C0.23,25.79 0.11,25.92 0,26.06C0.02,26.08 0.17,25.97 0.44,25.74L1.63,24.74C2.64,23.86 4.13,22.62 5.98,21.1C10.79,17.13 15.87,13.49 21.18,10.22Z " /></g><g opacity="1" transform="translate(113.43714087253927 31.37)  rotate(0 141.59740535641166 81.405)"><path id="路径 144" fill-rule="evenodd" style="fill:#263238" transform="translate(0 31.219999999999995)  rotate(0 3.18369472093935 15.095000000000002)" opacity="1" d="M0.96,14.63C1.3,12.62 1.77,10.64 2.38,8.7C2.9,7.12 3.51,5.58 4.22,4.08C5.45,1.52 6.44,0.05 6.36,0C6.08,0.31 5.83,0.64 5.61,1C5.38,1.33 5.11,1.73 4.83,2.23C4.55,2.73 4.2,3.28 3.89,3.93C3.11,5.42 2.45,6.97 1.89,8.56C1.25,10.52 0.76,12.52 0.42,14.56C0.12,16.6 -0.02,18.65 0,20.71C0.03,22.39 0.19,24.06 0.46,25.71C0.56,26.41 0.72,27.06 0.84,27.61C0.96,28.16 1.09,28.64 1.21,29.02C1.31,29.42 1.44,29.82 1.62,30.19C1.72,30.17 1.22,28.47 0.86,25.7C0.64,24.04 0.52,22.37 0.51,20.7C0.52,18.67 0.67,16.64 0.96,14.63Z " /><path id="路径 145" fill-rule="evenodd" style="fill:#FFFFFF" transform="translate(30.455149775563527 19.334691684419457)  rotate(-10.54 110.28 62.03)" opacity="1" d="M0,124.06L220.56,124.06L220.56,0L0,0L0,124.06Z " /><path id="路径 146" fill-rule="evenodd" style="fill:#263238" transform="translate(20.742859127460704 0)  rotate(0 119.88500000000003 81.405)" opacity="1" d="M22.72 162.57L22.72 162.81L22.96 162.76L179.08 133.63L223.82 125.2L235.72 122.97L238.77 122.39L239.77 122.18L238.71 122.36L235.63 122.92L223.69 125.11L178.88 133.38L23.12 162.24C16.16 124.79 8.5 83.7 0.54 40.75L216.9 0.45C223.9 37.79 229.55 68.18 233.54 89.25C235.52 99.81 237.07 108.04 238.12 113.62C238.63 116.28 239.02 118.35 239.29 119.79C239.294 119.817 239.299 119.843 239.305 119.869L239.34 120.05C239.34 120.059 239.342 120.066 239.344 120.073C239.346 120.082 239.348 120.09 239.35 120.1C239.61 121.47 239.76 122.17 239.76 122.17C239.76 122.17 239.64 121.47 239.35 120.1C239.35 120.089 239.347 120.081 239.344 120.073C239.339 120.045 239.338 120.02 239.33 119.99C239.324 119.947 239.314 119.909 239.305 119.869L239.29 119.79L238.18 113.71C237.15 108.13 235.64 99.92 233.7 89.37L217.22 0.19L217.22 0L217.02 0L0.25 40.31L0 40.31L0 40.57C8.04 83.74 15.72 124.99 22.72 162.57Z" /><path id="路径 147" fill-rule="evenodd" style="fill:#263238" transform="translate(70.02285912746073 52.86999999999999)  rotate(0 22.10499999999999 23.265000000000008)" opacity="1" d="M35.71,25.62L34.29,18.02L22.29,20.24L23.71,27.85L14.63,29.54L27.99,0L14.88,2.44L0,34.11L1.54,42.36L25.2,37.96L26.8,46.53L39.14,44.23L37.54,35.66L44.21,34.42L42.35,24.39L35.71,25.62Z " /><path id="分组 26" fill-rule="evenodd" style="fill:#263238" transform="translate(113.61033552553583 45.68396923734154)  rotate(0 20.32438744552178 23.645648956298828)" opacity="1" d="M24.68 46.92C36.04 44.81 42.77 34.76 40.04 19.99C37.31 5.22 27.47 -1.75 16.04 0.38C4.61 2.51 -2.14 12.56 0.61 27.33C3.36 42.1 13.32 49.03 24.68 46.92Z M17.9499 10.7353C13.9499 11.5253 11.5699 15.5553 13.3199 24.9553C15.0699 34.3553 18.6599 37.3253 22.7499 36.5653C26.8399 35.8053 29.0899 31.7453 27.3399 22.3453L27.3399 22.3253C25.5899 12.9453 21.9499 9.94531 17.9499 10.7353Z " /><path id="路径 150" fill-rule="evenodd" style="fill:#263238" transform="translate(158.61285912746075 36.39)  rotate(0 22.090000000000003 23.265)" opacity="1" d="M27.95,0L14.88,2.44L0,34.11L1.53,42.36L25.19,37.96L26.79,46.53L39.12,44.23L37.53,35.66L44.18,34.42L42.35,24.39L35.7,25.62L34.29,18.02L22.29,20.24L23.71,27.85L14.63,29.54L27.95,0Z " /><path id="路径 151" fill-rule="evenodd" style="fill:#263238" transform="translate(103.04285912746072 108.07)  rotate(0 8.00500000000001 9.930000000000007)" opacity="1" d="M2.91,4.02L12.79,2.18L12.39,0L0,2.3L3.27,19.86L16.01,17.49L15.6,15.31L5.37,17.22L4.31,11.56L13.12,9.91L12.72,7.77L3.91,9.41L2.91,4.02Z " /><path id="分组 27" fill-rule="evenodd" style="fill:#263238" transform="translate(119.85285912746072 105.772799032904)  rotate(0 8.86999999999999 9.523600483547995)" opacity="1" d="M14.99 16.86L17.74 16.35L12.48 11.23C14.73 10.02 15.89 7.45 15.31 4.97C14.6 1.16 11.41 -0.64 6.85 0.21L0 1.49L3.27 19.05L5.77 18.58L4.77 13.24L9.11 12.43C9.49 12.36 9.86 12.26 10.2 12.17L14.99 16.86Z M7.17 2.43494L2.9 3.22494L4.37 11.1249L8.64 10.3349C11.85 9.69494 13.26 7.93494 12.79 5.42494L12.79 5.43494C12.32 2.92494 10.38 1.80494 7.17 2.43494Z " /><path id="分组 28" fill-rule="evenodd" style="fill:#263238" transform="translate(138.08285912746072 102.37611286950118)  rotate(0 8.86999999999999 9.516943565249406)" opacity="1" d="M14.99 16.85L17.74 16.37L12.48 11.25C14.74 10.05 15.91 7.46 15.31 4.96C14.6 1.2 11.41 -0.65 6.85 0.2L0 1.48L3.27 19.03L5.77 18.57L4.77 13.22L9.11 12.42C9.49 12.35 9.86 12.25 10.2 12.16L14.99 16.85Z M7.17 2.43163L2.9 3.22163L4.37 11.1216L8.64 10.3316C11.85 9.70163 13.26 7.93163 12.79 5.43163C12.32 2.92163 10.38 1.80163 7.17 2.43163Z " /><path id="分组 29" fill-rule="evenodd" style="fill:#263238" transform="translate(156.33822722906518 98.60233918294858)  rotate(0 9.516587967095461 9.168008804321289)" opacity="1" d="M11.22 18.15C16.56 17.15 19.85 12.61 18.85 7.44C17.85 2.27 13.25 -0.81 7.85 0.19C2.45 1.19 -0.79 5.77 0.16 10.91C1.12 16.03 5.88 19.15 11.22 18.15Z M10.9858 2.30805C8.23581 1.70805 5.38581 2.81805 3.78581 5.12805C2.17581 7.44805 2.12581 10.4981 3.66581 12.8681C5.19581 15.2281 8.00581 16.4281 10.7758 15.9081C12.5958 15.6281 14.2258 14.6081 15.2758 13.0981C16.3258 11.5781 16.7058 9.69805 16.3258 7.89805L16.3258 7.90805C15.8458 5.12805 13.7358 2.91805 10.9858 2.30805Z " /><path id="分组 30" fill-rule="evenodd" style="fill:#263238" transform="translate(177.34285912746077 95.06212557425465)  rotate(0 8.870000000000005 9.518937212872672)" opacity="1" d="M15.03 16.86L17.74 16.35L12.48 11.23C14.74 10.03 15.9 7.46 15.31 4.97C14.6 1.15 11.42 -0.64 6.85 0.21L0 1.48L3.27 19.04L5.78 18.57L4.78 13.23L9.12 12.42C9.5 12.35 9.87 12.26 10.22 12.17L15.03 16.86Z M7.2 2.43009L2.94 3.22009L4.41 11.1201L8.67 10.3301C11.88 9.71009 13.29 7.94009 12.82 5.43009C12.36 2.93009 10.41 1.81009 7.2 2.43009Z " /><path id="路径 160" fill-rule="evenodd" style="fill:#E0E0E0" transform="translate(224.19617433744924 9.06734355111649)  rotate(0 4.520093856100004 4.52007248670208)" opacity="1" d="M4.37,0C2.54,0.06 0.93,1.22 0.29,2.94C-0.35,4.65 0.1,6.59 1.44,7.83C2.78,9.08 4.74,9.39 6.41,8.63C8.07,7.86 9.11,6.17 9.04,4.34C8.94,1.86 6.85,-0.08 4.37,0Z " /><path id="路径 161" fill-rule="evenodd" style="fill:#263238" transform="translate(223.92799630041145 8.851734830738732)  rotate(0 4.67622489344285 4.739249202128153)" opacity="1" d="M9.31,4.27C9.32,3.99 9.28,3.71 9.2,3.44C8.95,2.41 8.33,1.51 7.47,0.89C6.17,-0.05 4.48,-0.26 2.98,0.34C1.12,1.08 -0.07,2.92 0,4.93C0.08,6.93 1.42,8.67 3.33,9.27C4.87,9.74 6.54,9.4 7.76,8.36C8.57,7.68 9.12,6.73 9.29,5.69C9.35,5.41 9.36,5.13 9.34,4.85C9.29,4.66 9.34,4.56 9.29,4.56C9.24,4.56 9.26,4.96 9.09,5.65C8.86,6.61 8.31,7.46 7.53,8.08C6.27,9.08 4.54,9.3 3.07,8.63C1.59,7.96 0.62,6.53 0.53,4.91C0.48,3.28 1.34,1.77 2.77,0.98C4.19,0.2 5.93,0.28 7.27,1.19C8.09,1.75 8.71,2.55 9.02,3.49C9.24,4.16 9.25,4.56 9.3,4.56C9.32,4.56 9.32,4.46 9.31,4.27Z " /><path id="路径 162" fill-rule="evenodd" style="fill:#263238" transform="translate(227.67285912746064 10.27)  rotate(0 1.5627019003325415 3.0599999999999987)" opacity="1" d="M1.95,3.27C1.36,4.26 0.71,5.21 0,6.12C1.1,5.57 1.95,4.64 2.42,3.51C3.04,2.45 3.26,1.21 3.04,0C2.75,1.11 2.38,2.2 1.95,3.27Z " /><path id="路径 163" fill-rule="evenodd" style="fill:#263238" transform="translate(226.78285912746082 12.334486198830493)  rotate(0 2.4088288667128097 1.3646751007024207)" opacity="1" d="M4.49,1.9C4.11,1.28 3.57,0.79 2.93,0.46C2.29,0.12 1.57,-0.03 0.85,0.01C0.3,0.05 0,0.19 0,0.26C0.92,0.35 1.83,0.57 2.69,0.92C4.05,1.62 4.65,2.81 4.78,2.73C4.88,2.71 4.78,2.37 4.49,1.9Z " /><path id="路径 164" fill-rule="evenodd" style="fill:#E0E0E0" transform="translate(19.66527912071207 76.85975452619145)  rotate(-38.57 7.275 3.29)" opacity="1" d="M0,6.58L14.55,6.58L14.55,0L0,0L0,6.58Z " /><path id="路径 165" fill-rule="evenodd" style="fill:#263238" transform="translate(18.982859127460742 72.83000000000001)  rotate(0 7.844999999999999 7.354999999999997)" opacity="1" d="M0.64 9.36L0.61 9.32C4.88 5.92 8.73 2.81 11.6 0.47L14.49 3.99C15.23 4.87 15.69 5.37 15.69 5.37C15.39 4.9 15.05 4.45 14.69 4.02C13.97 3.14 12.96 1.78 11.69 0.14L11.57 0L11.42 0.11C8.46 2.4 4.44 5.56 0.04 9.08C0.04 9.01 0.03 9 0 9.11C0.01 9.1 0.02 9.09 0.04 9.08C0.03 9.19 0.01 9.44 0 9.47L0.06 9.55L0.2 9.72L0.47 10.06L1 10.72C1.35 11.17 1.7 11.6 2.05 12.03L4.05 14.52L4.21 14.71L4.4 14.56C7.74 11.9 10.56 9.54 12.56 7.9L14.86 5.98C15.13 5.77 15.38 5.55 15.62 5.3C15.3 5.5 14.98 5.72 14.69 5.96L12.27 7.8C10.26 9.35 7.49 11.48 4.3 14L2.44 11.67L1.44 10.36L0.91 9.69L0.64 9.36Z" /><path id="路径 166" fill-rule="evenodd" style="fill:#E0E0E0" transform="translate(15.317013788500518 80.13)  rotate(0 4.927922669480111 5.404567531745322)" opacity="1" d="M5.38,10.77C6.98,10.96 8.59,10.5 9.86,9.5L2.25,0C-0.34,2.1 -0.75,5.89 1.33,8.5C2.32,9.76 3.78,10.58 5.38,10.77Z " /><path id="路径 167" fill-rule="evenodd" style="fill:#263238" transform="translate(15.15243228232167 79.75999999999999)  rotate(0 5.185213422569561 5.675970634355565)" opacity="1" d="M2.5 0L2.31 0.15C1.27 1 0.53 2.16 0.2 3.46C-0.07 4.46 -0.07 5.52 0.2 6.52C0.37 7.17 0.64 7.79 1.02 8.34C1.15 8.54 1.31 8.72 1.49 8.87C1.6 9.08 1.74 9.27 1.91 9.44C2.36 9.93 2.9 10.34 3.49 10.65C4.41 11.14 5.45 11.38 6.49 11.35C7.83 11.31 9.12 10.84 10.18 10.02L10.37 9.87L10.22 9.68C9.06 8.21 7.79 6.6 6.45 4.92L2.65 0.19L2.5 0Z" /><path id="路径 168"  style="fill:#E0E0E0" transform="translate(17.110944998708973 85.47999999999999)  rotate(0 0.46595706437587125 2)" opacity="1" d="" /><path id="路径 169" fill-rule="evenodd" style="fill:#263238" transform="translate(16.81072778411344 85.46872966926098)  rotate(0 0.6199534112502931 2.0256351653695077)" opacity="1" d="M0.59,2.01C0.75,0.86 1.31,0.12 1.23,0.01C1.15,-0.1 0.27,0.6 0.08,1.9C-0.13,2.66 0.07,3.47 0.6,4.05C0.75,3.98 0.43,3.16 0.59,2.01Z " /><path id="路径 170" fill-rule="evenodd" style="fill:#263238" transform="translate(20.772859127460706 80.82999999999998)  rotate(0 2.210000000000008 2.6500000000000057)" opacity="1" d="M2.6,2.32C1.92,1.36 1.03,0.56 0,0C0.67,0.94 1.4,1.82 2.2,2.65C2.87,3.59 3.61,4.47 4.42,5.3C4.04,4.18 3.42,3.17 2.6,2.32Z " /><path id="路径 171" fill-rule="evenodd" style="fill:#263238" transform="translate(22.152859127460786 79.76000000000003)  rotate(0 2.20499999999997 2.65499999999998)" opacity="1" d="M0,0C0.66,0.94 1.4,1.83 2.2,2.66C2.87,3.6 3.61,4.48 4.41,5.31C3.5,3.14 1.97,1.29 0,0Z " /><path id="路径 172" fill-rule="evenodd" style="fill:#263238" transform="translate(23.44285912746075 78.69999999999999)  rotate(0 2.2099999999999937 2.6500000000000057)" opacity="1" d="M2.61,2.32C1.93,1.36 1.03,0.57 0,0C0.67,0.94 1.41,1.82 2.21,2.65C2.88,3.59 3.62,4.48 4.42,5.3C4.04,4.19 3.42,3.17 2.61,2.32Z " /><path id="路径 173" fill-rule="evenodd" style="fill:#263238" transform="translate(24.782859127460725 77.63)  rotate(0 2.2049999999999983 2.655000000000001)" opacity="1" d="M2.6,2.32C1.91,1.37 1.03,0.57 0,0C0.67,0.94 1.4,1.83 2.2,2.66C2.87,3.6 3.61,4.48 4.41,5.31C4.04,4.19 3.42,3.17 2.6,2.32Z " /><path id="路径 174" fill-rule="evenodd" style="fill:#263238" transform="translate(26.1528591274607 76.56999999999996)  rotate(0 2.2050000000000125 2.650000000000013)" opacity="1" d="M2.6,2.32C1.92,1.36 1.03,0.57 0,0C0.66,0.94 1.4,1.83 2.2,2.65C2.87,3.59 3.61,4.48 4.41,5.3C4.03,4.19 3.41,3.17 2.6,2.32Z " /><path id="路径 175" fill-rule="evenodd" style="fill:#263238" transform="translate(27.45285912746074 75.5)  rotate(0 2.2049999999999983 2.655000000000001)" opacity="1" d="M2.6,2.32C1.91,1.37 1.03,0.57 0,0C0.67,0.94 1.4,1.83 2.2,2.66C2.87,3.6 3.61,4.48 4.41,5.31C4.04,4.19 3.42,3.17 2.6,2.32Z " /><path id="路径 176" fill-rule="evenodd" style="fill:#263238" transform="translate(28.792859127460687 74.43999999999997)  rotate(0 2.2050000000000125 2.650000000000013)" opacity="1" d="M2.6,2.32C1.92,1.36 1.03,0.57 0,0C0.66,0.94 1.4,1.83 2.2,2.65C2.87,3.59 3.61,4.48 4.41,5.3C4.03,4.19 3.41,3.17 2.6,2.32Z " /><path id="路径 177" fill-rule="evenodd" style="fill:#263238" transform="translate(31.762108811900546 46.08180623169498)  rotate(0 4.690375157780096 4.779352034332554)" opacity="1" d="M9.38 4.32Q9.365 3.885 9.26 3.48C9 2.44 8.38 1.53 7.51 0.9C6.19 -0.05 4.47 -0.26 2.96 0.34C1.1 1.11 -0.08 2.95 0 4.96C0.08 6.97 1.41 8.72 3.32 9.34C4.87 9.83 6.57 9.49 7.8 8.43C8.61 7.72 9.14 6.75 9.3 5.69C9.35 5.41 9.37 5.12 9.35 4.84C9.3 4.65 9.35 4.55 9.3 4.55C9.32 4.55 9.35 4.47 9.38 4.32ZM7.24 1.14C8.08 1.69 8.7 2.51 9.02 3.47C9.24 4.14 9.25 4.55 9.3 4.55C9.25 4.55 9.27 4.96 9.1 5.65C8.86 6.62 8.31 7.49 7.52 8.11C6.24 9.14 4.48 9.37 2.98 8.69C1.48 8.01 0.48 6.55 0.41 4.9C0.35 3.25 1.23 1.71 2.67 0.92C4.11 0.13 5.88 0.21 7.24 1.14Z" /><path id="路径 178" fill-rule="evenodd" style="fill:#263238" transform="translate(9.736445194722847 31.52)  rotate(0 3.186025054877142 15.094999999999999)" opacity="1" d="M4.24,4.09C5.46,1.52 6.46,0.06 6.37,0C6.08,0.31 5.83,0.64 5.62,1C5.34,1.4 5.08,1.81 4.84,2.23C4.56,2.72 4.21,3.27 3.91,3.92C3.13,5.41 2.46,6.97 1.91,8.56C0.57,12.47 -0.07,16.58 0.01,20.71C0.04,22.39 0.2,24.06 0.48,25.71C0.57,26.42 0.74,27.05 0.86,27.6C0.95,28.08 1.07,28.56 1.23,29.02C1.32,29.42 1.46,29.81 1.63,30.19C1.73,30.16 1.23,28.47 0.87,25.71C0.64,24.05 0.52,22.38 0.52,20.71C0.52,18.67 0.67,16.64 0.98,14.63C1.3,12.63 1.77,10.65 2.39,8.71C2.9,7.13 3.51,5.59 4.24,4.09Z " /><path id="路径 179" fill-rule="evenodd" style="fill:#263238" transform="translate(270.3172229504444 105.63)  rotate(0 3.1858690514249304 15.094999999999985)" opacity="1" d="M4.47,21.63C5.8,17.72 6.44,13.61 6.37,9.48C6.33,7.8 6.17,6.13 5.9,4.48C5.81,3.77 5.64,3.14 5.52,2.58C5.42,2.1 5.29,1.63 5.15,1.17C5.06,0.76 4.92,0.37 4.74,0C4.65,0.06 5.15,1.76 5.51,4.49C5.72,6.15 5.84,7.82 5.86,9.49C5.85,11.52 5.7,13.55 5.4,15.56C5.07,17.57 4.6,19.55 3.99,21.49C3.46,23.07 2.85,24.61 2.14,26.11C0.92,28.67 -0.08,30.14 0.01,30.19C0.29,29.89 0.54,29.55 0.75,29.19C1.03,28.8 1.29,28.39 1.53,27.96C1.82,27.46 2.16,26.91 2.47,26.26C3.25,24.77 3.92,23.22 4.47,21.63Z " /><path id="路径 180" fill-rule="evenodd" style="fill:#263238" transform="translate(276.81722295044426 107.38999999999999)  rotate(0 3.1887938811895253 15.120000000000005)" opacity="1" d="M2.48,26.27C3.26,24.78 3.93,23.22 4.48,21.63C5.13,19.67 5.62,17.67 5.96,15.63C6.26,13.59 6.4,11.54 6.38,9.48C6.34,7.8 6.18,6.13 5.91,4.48C5.81,3.77 5.65,3.14 5.53,2.58C5.43,2.1 5.3,1.63 5.16,1.17C5.07,0.77 4.93,0.37 4.75,0C4.65,0.02 5.15,1.72 5.51,4.54C5.73,6.2 5.84,7.87 5.86,9.54C5.85,11.57 5.7,13.6 5.4,15.61C5.07,17.62 4.6,19.6 3.99,21.54C3.47,23.12 2.85,24.66 2.14,26.16C0.92,28.72 -0.08,30.19 0.01,30.24C0.29,29.94 0.54,29.6 0.75,29.24C1.03,28.83 1.3,28.4 1.54,27.96C1.83,27.46 2.17,26.91 2.48,26.27Z " /></g><g opacity="1" transform="translate(100.95622910392406 149.67108544338868)  rotate(0 42.77132019704825 42.73118214582426)"><path id="路径 181" fill-rule="evenodd" style="fill:#FAFAFA" transform="translate(0.5373950579216427 0)  rotate(0 42.23078260615097 42.231239212272556)" opacity="1" d="M70.38,10.75C54.05,-3.85 29.27,-3.54 13.31,11.46C-2.65,26.46 -4.49,51.17 9.06,68.37C22.62,85.57 47.08,89.55 65.4,77.54L79.92,83.97L76.04,67.54C89.16,50.01 86.71,25.35 70.38,10.75Z " /><path id="路径 182" fill-rule="evenodd" style="fill:#FF725E" transform="translate(29.94234503448574 32.25452198861984)  rotate(0 12.551523329792829 10.677196283995741)" opacity="1" d="M18.7,0.07C16.1,-0.34 13.53,0.98 12.35,3.33C10.96,0.98 8.15,-0.14 5.52,0.62C4.03,1.09 2.72,2.01 1.77,3.25C0.76,4.49 0.14,6 0.02,7.59C-0.12,9.62 0.4,11.64 1.5,13.35C2.78,15.07 4.45,16.46 6.38,17.4C9.5,19.04 13.01,21.35 13.01,21.35C13.01,21.35 16.84,18.85 19.75,16.85C21.55,15.69 23.05,14.11 24.11,12.25C25.02,10.43 25.32,8.36 24.95,6.35C24.63,4.79 23.85,3.36 22.7,2.24C21.62,1.13 20.23,0.37 18.7,0.07Z " /><path id="路径 183" fill-rule="evenodd" style="fill:#263238" transform="translate(0 0.13238920359432882)  rotate(0 42.77132019704825 42.6649875440271)" opacity="1" d="M46.7 0.09L44.51 0.02L43.18 0.02C43.03 -0.01 42.88 -0.01 42.73 0.02C42.88 0.05 43.03 0.07 43.18 0.08L44.51 0.18L46.67 0.33C47.53 0.4 48.51 0.61 49.62 0.78C66.09 3.62 79.34 15.91 83.41 32.12C83.57 32.81 83.78 33.49 83.91 34.19C84.04 34.89 84.12 35.61 84.23 36.32C84.48 37.77 84.61 39.24 84.62 40.71C84.79 43.76 84.59 46.82 84.02 49.83C82.85 56.28 80.17 62.36 76.2 67.58L76.07 67.76L76.13 67.98C77.46 72.82 78.81 77.82 80.21 82.95L66.24 77.31L66.01 77.22L65.79 77.35C61.45 80.21 56.62 82.25 51.53 83.35C49.18 83.85 46.78 84.16 44.37 84.26C43.18 84.3 41.98 84.27 40.79 84.19C39.61 84.17 38.43 84.07 37.26 83.89C32.64 83.33 28.14 81.96 23.99 79.84C19.97 77.82 16.27 75.2 13.04 72.06C10.03 68.98 7.47 65.48 5.45 61.67C3.56 58.03 2.21 54.13 1.45 50.1C1.3 49.1 1.15 48.1 1 47.17C0.85 46.24 0.87 45.17 0.8 44.25C0.07 29.33 7.33 15.15 19.87 7.04C23.5 4.63 27.49 2.83 31.69 1.71L34.14 1.06L36.34 0.7L38.22 0.39C38.8 0.32 39.33 0.31 39.8 0.27L41.95 0.11C42.21 0.1 42.47 0.07 42.72 0.03C42.48 0 42.23 0 41.98 0.03L39.83 0.1C39.35 0.1 38.83 0.1 38.24 0.17L36.34 0.43L34.12 0.75L31.64 1.37C27.38 2.44 23.33 4.21 19.64 6.61C8.57 13.65 1.38 25.42 0.16 38.49C0 40.42 -0.04 42.37 0.04 44.31C0.11 45.31 0.04 46.31 0.23 47.31C0.42 48.31 0.53 49.31 0.69 50.31C1.44 54.43 2.79 58.41 4.69 62.14C6.74 66.04 9.34 69.62 12.41 72.77C15.69 75.99 19.44 78.69 23.54 80.77C27.79 82.95 32.38 84.35 37.11 84.93C38.31 85.11 39.52 85.22 40.73 85.24C41.95 85.33 43.17 85.35 44.39 85.31C46.86 85.2 49.31 84.89 51.72 84.38C56.85 83.27 61.72 81.22 66.1 78.34L80.73 84.25L81.61 84.61L81.36 83.69L77.1 67.96C81.06 62.66 83.73 56.5 84.89 49.99C85.47 46.92 85.66 43.8 85.47 40.69C85.44 39.18 85.3 37.68 85.04 36.2C84.93 35.47 84.81 34.75 84.7 34.03C84.59 33.31 84.35 32.62 84.18 31.92C81.7 22.15 75.83 13.59 67.61 7.76C64.58 5.58 61.26 3.82 57.74 2.55L55.52 1.76L53.41 1.22L51.48 0.74C50.86 0.62 50.26 0.56 49.7 0.47C48.58 0.33 47.59 0.14 46.7 0.09Z" /></g></g></g></svg>