<svg xmlns="http://www.w3.org/2000/svg" xmlns:xlink="http://www.w3.org/1999/xlink" width="600" height="600" viewBox="0 0 600 600" fill="none"><defs><rect id="path_0" x="0" y="0" width="600" height="600" /><linearGradient id="linear_0" x1="50%" y1="-29.885590076446533%" x2="51%" y2="44.050124287605286%" gradientUnits="objectBoundingBox"><stop offset="0" stop-color="#CFDFFA" stop-opacity="1" /><stop offset="1" stop-color="#EAF0FC" stop-opacity="0" /></linearGradient><linearGradient id="linear_1" x1="50%" y1="0.9752820245921612%" x2="53.62269878387451%" y2="109.79819297790527%" gradientUnits="objectBoundingBox"><stop offset="0" stop-color="#CFDFFA" stop-opacity="1" /><stop offset="1" stop-color="#EAF0FC" stop-opacity="0" /></linearGradient><linearGradient id="linear_2" x1="50%" y1="0.9752820245921612%" x2="53.62269878387451%" y2="109.79819297790527%" gradientUnits="objectBoundingBox"><stop offset="0" stop-color="#CFDFFA" stop-opacity="1" /><stop offset="1" stop-color="#EAF0FC" stop-opacity="0" /></linearGradient><linearGradient id="linear_3" x1="50%" y1="11.497373878955841%" x2="72.18129634857178%" y2="100%" gradientUnits="objectBoundingBox"><stop offset="0" stop-color="#BFD4FA" stop-opacity="1" /><stop offset="1" stop-color="#5792F0" stop-opacity="1" /></linearGradient><linearGradient id="linear_4" x1="50%" y1="11.497373878955841%" x2="74.28278923034668%" y2="131.88101053237915%" gradientUnits="objectBoundingBox"><stop offset="0" stop-color="#BFD4FA" stop-opacity="1" /><stop offset="1" stop-color="#5792F0" stop-opacity="1" /></linearGradient><linearGradient id="linear_5" x1="50%" y1="11.497373878955841%" x2="74.28278923034668%" y2="131.88101053237915%" gradientUnits="objectBoundingBox"><stop offset="0" stop-color="#BFD4FA" stop-opacity="1" /><stop offset="1" stop-color="#5792F0" stop-opacity="1" /></linearGradient><linearGradient id="linear_6" x1="50%" y1="11.497373878955841%" x2="74.28278923034668%" y2="131.88101053237915%" gradientUnits="objectBoundingBox"><stop offset="0" stop-color="#BFD4FA" stop-opacity="1" /><stop offset="1" stop-color="#5792F0" stop-opacity="1" /></linearGradient><linearGradient id="linear_7" x1="50%" y1="11.497373878955841%" x2="74.28278923034668%" y2="131.88101053237915%" gradientUnits="objectBoundingBox"><stop offset="0" stop-color="#BFD4FA" stop-opacity="1" /><stop offset="1" stop-color="#5792F0" stop-opacity="1" /></linearGradient><linearGradient id="linear_8" x1="50%" y1="11.497373878955841%" x2="74.28278923034668%" y2="131.88101053237915%" gradientUnits="objectBoundingBox"><stop offset="0" stop-color="#BFD4FA" stop-opacity="1" /><stop offset="1" stop-color="#5792F0" stop-opacity="1" /></linearGradient><linearGradient id="linear_9" x1="50%" y1="11.497373878955841%" x2="74.28278923034668%" y2="131.88101053237915%" gradientUnits="objectBoundingBox"><stop offset="0" stop-color="#BFD4FA" stop-opacity="1" /><stop offset="1" stop-color="#5792F0" stop-opacity="1" /></linearGradient><linearGradient id="linear_10" x1="62.56280541419983%" y1="-91.63265824317932%" x2="55.383121967315674%" y2="93.87078285217285%" gradientUnits="objectBoundingBox"><stop offset="0" stop-color="#5792F0" stop-opacity="1" /><stop offset="1" stop-color="#BFD4FA" stop-opacity="0" /></linearGradient><linearGradient id="linear_11" x1="17.923276126384735%" y1="7.105427357601002e-13%" x2="121.16245031356812%" y2="204.87375259399414%" gradientUnits="objectBoundingBox"><stop offset="0" stop-color="#BFD4FA" stop-opacity="1" /><stop offset="1" stop-color="#5792F0" stop-opacity="1" /></linearGradient><linearGradient id="linear_12" x1="17.923276126384735%" y1="7.105427357601002e-13%" x2="100%" y2="100%" gradientUnits="objectBoundingBox"><stop offset="0" stop-color="#BFD4FA" stop-opacity="1" /><stop offset="1" stop-color="#5792F0" stop-opacity="1" /></linearGradient><linearGradient id="linear_13" x1="81.763756275177%" y1="119.70572471618652%" x2="-14.396163821220398%" y2="-62.983107566833496%" gradientUnits="objectBoundingBox"><stop offset="0" stop-color="#BFD4FA" stop-opacity="1" /><stop offset="1" stop-color="#5792F0" stop-opacity="1" /></linearGradient><linearGradient id="linear_14" x1="-37.16762661933899%" y1="-61.94109916687012%" x2="50%" y2="116.92743301391602%" gradientUnits="objectBoundingBox"><stop offset="0" stop-color="#5792F0" stop-opacity="1" /><stop offset="1" stop-color="#BFD4FA" stop-opacity="1" /></linearGradient><linearGradient id="linear_15" x1="17.923276126384735%" y1="7.105427357601002e-13%" x2="121.16245031356812%" y2="204.87375259399414%" gradientUnits="objectBoundingBox"><stop offset="0" stop-color="#BFD4FA" stop-opacity="1" /><stop offset="1" stop-color="#5792F0" stop-opacity="1" /></linearGradient><linearGradient id="linear_16" x1="17.923276126384735%" y1="7.105427357601002e-13%" x2="40.30977487564087%" y2="191.8362855911255%" gradientUnits="objectBoundingBox"><stop offset="0" stop-color="#BFD4FA" stop-opacity="1" /><stop offset="1" stop-color="#5792F0" stop-opacity="1" /></linearGradient><linearGradient id="linear_17" x1="17.923276126384735%" y1="7.105427357601002e-13%" x2="121.16245031356812%" y2="204.87375259399414%" gradientUnits="objectBoundingBox"><stop offset="0" stop-color="#BFD4FA" stop-opacity="1" /><stop offset="1" stop-color="#5792F0" stop-opacity="1" /></linearGradient><linearGradient id="linear_18" x1="17.923276126384735%" y1="7.105427357601002e-13%" x2="121.16245031356812%" y2="204.87375259399414%" gradientUnits="objectBoundingBox"><stop offset="0" stop-color="#BFD4FA" stop-opacity="1" /><stop offset="1" stop-color="#5792F0" stop-opacity="1" /></linearGradient><linearGradient id="linear_19" x1="17.923276126384735%" y1="7.105427357601002e-13%" x2="121.16245031356812%" y2="204.87375259399414%" gradientUnits="objectBoundingBox"><stop offset="0" stop-color="#BFD4FA" stop-opacity="1" /><stop offset="1" stop-color="#5792F0" stop-opacity="1" /></linearGradient><linearGradient id="linear_20" x1="50%" y1="12.924309074878693%" x2="51%" y2="100%" gradientUnits="objectBoundingBox"><stop offset="0" stop-color="#FFCDA5" stop-opacity="1" /><stop offset="1" stop-color="#FFE8D1" stop-opacity="1" /></linearGradient><linearGradient id="linear_21" x1="40.07561802864075%" y1="0%" x2="100%" y2="100%" gradientUnits="objectBoundingBox"><stop offset="0" stop-color="#FFF2DF" stop-opacity="1" /><stop offset="1" stop-color="#FEE0BC" stop-opacity="1" /></linearGradient><linearGradient id="linear_22" x1="85.6525182723999%" y1="-31.010887026786804%" x2="0%" y2="100%" gradientUnits="objectBoundingBox"><stop offset="0" stop-color="#BFD4FA" stop-opacity="1" /><stop offset="1" stop-color="#5792F0" stop-opacity="1" /></linearGradient><linearGradient id="linear_23" x1="172.42553234100342%" y1="36.51573956012726%" x2="10.27652844786644%" y2="91.69331789016724%" gradientUnits="objectBoundingBox"><stop offset="0" stop-color="#BFD4FA" stop-opacity="1" /><stop offset="1" stop-color="#5792F0" stop-opacity="1" /></linearGradient><linearGradient id="linear_24" x1="160.30880212783813%" y1="64.7193968296051%" x2="-6.291448324918747%" y2="50%" gradientUnits="objectBoundingBox"><stop offset="0" stop-color="#BFD4FA" stop-opacity="1" /><stop offset="1" stop-color="#5792F0" stop-opacity="1" /></linearGradient><linearGradient id="linear_25" x1="50%" y1="0%" x2="51%" y2="100%" gradientUnits="objectBoundingBox"><stop offset="0" stop-color="#FEE127" stop-opacity="1" /><stop offset="1" stop-color="#F9AB21" stop-opacity="1" /></linearGradient><linearGradient id="linear_26" x1="8.339226990938187%" y1="25.29975175857544%" x2="95.46623826026917%" y2="83.2825243473053%" gradientUnits="objectBoundingBox"><stop offset="0" stop-color="#FEE127" stop-opacity="1" /><stop offset="1" stop-color="#F9AB21" stop-opacity="1" /></linearGradient></defs><g opacity="1" transform="translate(0 0)  rotate(0 300 300)"><rect fill="#FFFFFF" opacity="1" transform="translate(0 0)  rotate(0 300 300)" x="0" y="0" width="600" height="600" /><mask id="bg-mask-0" fill="white"><use xlink:href="#path_0"></use></mask><g mask="url(#bg-mask-0)" ><g opacity="1" transform="translate(60 149)  rotate(0 240 254)"><path id="椭圆形" fill-rule="evenodd" fill="url(#linear_0)" transform="translate(0 258)  rotate(0 240 125)" opacity="1" d="M240,0C107.45,0 0,55.96 0,125C0,194.04 107.45,250 240,250C372.55,250 480,194.04 480,125C480,55.96 372.55,0 240,0Z " /><path id="云" fill-rule="evenodd" fill="url(#linear_1)" transform="translate(327 25)  rotate(0 40 23.030303955078125)" opacity="1" d="M16 46.06C7.27 45.48 0 40.02 0 32.53C0 27.64 3.27 23.32 8 21.02C7.64 20.15 7.27 19.29 7.27 18.42C7.27 13.53 12 9.21 18.18 9.21C20.73 9.21 22.91 10.08 24.73 11.23C29.09 4.61 37.09 0 46.55 0C59.64 0 70.18 8.92 70.18 19.86L70.18 21.02C76 23.03 80 27.64 80 33.11C80 40.3 73.09 46.06 64.36 46.06L16 46.06Z" /><path id="云" fill-rule="evenodd" fill="url(#linear_2)" transform="translate(27 0)  rotate(0 55 28.89)" opacity="1" d="M56.1078 0C46.6579 0 38.285 4.63274 33.1375 11.7498C29.9139 9.92841 26.1892 8.88889 22.22 8.88889C9.95 8.88889 0 18.8389 0 31.1089C0 35.5727 1.31472 39.7273 3.57768 43.2076C4.9725 51.475 12.1712 57.7789 20.8333 57.7789L92.5033 57.7789C102.163 57.7789 110.003 49.9389 110.003 40.2789L110.003 36.3889C110.003 26.7289 102.163 18.8889 92.5033 18.8889L82.8349 18.8889C78.944 7.88712 68.4457 0 56.1078 0Z " /><g opacity="1" transform="translate(84.99999998999758 284.99999995788784)  rotate(0 10.801715013033963 20.500000021056096)"><path id="椭圆形" fill-rule="evenodd" style="fill:#CCDCF6" transform="translate(7.0000000100024184 37.00000004211219)  rotate(0 6.400000095367432 2)" opacity="1" d="M6.4,0C2.87,0 0,0.9 0,2C0,3.1 2.87,4 6.4,4C9.93,4 12.8,3.1 12.8,2C12.8,0.9 9.93,0 6.4,0Z " /><path id="路径 42" fill-rule="evenodd" fill="url(#linear_3)" transform="translate(6.604849348533913 12.697899868320578)  rotate(0 7.4992903387670085 13.05297072688055)" opacity="1" d="M14.34 2.68C12.37 5.96 7.1 4.69 1.83 25.51C1.12 26.85 0 25.52 0 25.52C0 25.52 1.31 3.69 10.95 0.25C11.05 0.236556 11.1506 0.222846 11.2512 0.209114C13.6963 -0.124407 16.2321 -0.470302 14.34 2.68Z" /><path id="路径 41" fill-rule="evenodd" fill="url(#linear_4)" transform="translate(0 0)  rotate(0 5.521785838341658 19.42926740365279)" opacity="1" d="M4.41 0.84C11.66 4.67 12.51 24.3 9.16 36.25C7.6 40.78 6.48 38.03 6.48 38.03C6.48 38.03 3.92 17.64 2.28 12.39C2.19916 12.1291 2.11377 11.8563 2.02536 11.5739C0.331179 6.16143 -2.47092 -2.79054 4.41 0.84Z" /></g><g opacity="1" transform="translate(343.06011962890625 257.7134921190154)  rotate(0 30 25.122391785001835)"><path id="路径 43" fill-rule="evenodd" fill="url(#linear_5)" transform="translate(13.62918094385913 28.521540913991107)  rotate(0 9.787344384909087 9.599912644568509)" opacity="1" d="M2.9736 0.228814C6.96455 -0.298296 13.9187 -1.21678 19.3 14.31C19.92 16.79 19.3 19.2 19.3 19.2C19.3 19.2 17.41 10.6 8.27 7.18C1.31 4.94 -2.5 2.28 1.85 0.36C2.19052 0.33224 2.56665 0.282562 2.9736 0.228814Z" /><path id="路径 44" fill-rule="evenodd" fill="url(#linear_6)" transform="translate(18.267665866543222 6.712883744636116)  rotate(0 8.58406420601422 20.95876312370096)" opacity="1" d="M16.27 22.76C16.55 24.38 18.14 33.87 16.27 39.99C15.85 41.25 14.97 41.92 14.97 41.92C14.97 41.92 9.47 21.39 2.48 11.95C-0.95 7.65 -0.71 1.49 2.48 0.1C5.74 -0.26 11.74 -0.83 16.27 22.76Z" /><path id="路径 45" fill-rule="evenodd" fill="url(#linear_7)" transform="translate(29.07842441258718 0)  rotate(0 6.543811656348987 22.90225980495355)" opacity="1" d="M12.69 25.72C11.57 34.18 9.63 39.18 7.6 45.54C6.53 46.14 5.01 45.54 5.01 45.54C5.01 45.54 7.49 36.36 4.37 21.57C4.00078 20.4577 3.6009 19.3155 3.19813 18.1651C0.142927 9.4386 -3.07807 0.238552 5.66 0C9.67 0.55 14.52 4.75 12.69 25.72Z" /><path id="路径 46" fill-rule="evenodd" fill="url(#linear_8)" transform="translate(35.99607760296406 8.245762127436608)  rotate(0 9.292713281194665 19.83605576480499)" opacity="1" d="M6.96 27.11C3.91 31.11 1.91 36.94 1.89 38.3C1.87 39.67 0.03 39.67 0.03 39.67C0.03 39.67 -0.97 13.7 9.53 2.4C11.42 -0.12 18.61 -2.48 18.59 5.42C17.83 8.81 16.23 16.06 6.96 27.11Z" /><path id="路径 47" fill-rule="evenodd" fill="url(#linear_9)" transform="translate(0 37.491574564506976)  rotate(0 30 6.376604502748347)" opacity="1" d="M46.29 0.06C49.58 -0.2 59.28 -0.09 60 12.71C56.03 12.8 0 12.71 0 12.71C0 12.71 10.4 10.77 11.47 9.42C12.54 8.07 21.97 2.26 27.85 7.15C29.14 5.51 33.24 4.23 35.59 7.15C36.67 2.53 43.37 -0.42 46.29 0.06Z" /></g></g><g opacity="1" transform="translate(163 210.173583984375)  rotate(0 110.85518030299966 141.9652426044002)"><path id="路径" fill-rule="evenodd" fill="url(#linear_10)" transform="translate(121.40350471742694 162.12368987002517)  rotate(-49.99999868188682 60.8985290527344 102.54385375976565)" opacity="0.3" d="M121.8 205.09L0 185.88L13.71 1.99L47.64 0L121.8 205.09Z" /><g opacity="1" transform="translate(0 137.78511047363278)  rotate(0 85.43262100219727 54.78414821624756)"><path id="路径" fill-rule="evenodd" fill="url(#linear_11)" transform="translate(76.62118530273438 0)  rotate(0 38.69369888305664 23.752567291259766)" opacity="1" d="M76.15 47.51L0 38.61L0 0L77.39 9.74L76.15 47.51Z" /><path id="路径" fill-rule="evenodd" fill="url(#linear_12)" transform="translate(15.324236869812012 0)  rotate(0 30.648473739624023 27.966732025146484)" opacity="1" d="M61.3 43.41L0 55.93L0 12.6L61.29 0L61.3 43.41Z" /><path id="路径" fill-rule="evenodd" fill="url(#linear_13)" transform="translate(87.34815216064453 12.259389877319336)  rotate(0 32.94710922241211 48.65445327758789)" opacity="1" d="M65.89 80.32L0 97.31L0 16.99L65.89 0L65.89 80.32Z" /><path id="路径" fill-rule="evenodd" fill="url(#linear_14)" transform="translate(16.0904483795166 14.558025360107422)  rotate(0 36.011959075927734 47.50513458251953)" opacity="1" d="M71.6 95.01L0 79.01L0 0L72.02 14.36L71.6 95.01Z" /><path id="路径" fill-rule="evenodd" fill="url(#linear_15)" transform="translate(0 13.791813850402832)  rotate(0 44.05718231201172 22.98635673522949)" opacity="1" d="M73.9 45.97L0 28.48L15.45 0L88.11 15.46L73.9 45.97Z" /><path id="路径" fill-rule="evenodd" fill="url(#linear_16)" transform="translate(88.11436462402345 10.72696590423584)  rotate(0 41.37543869018554 24.51877975463867)" opacity="1" d="M82.75 28.28L19.57 49.04L0 18.17L65.96 0L82.75 28.28Z" /></g><g opacity="1" transform="translate(10.246377133509265 0)  rotate(0 79.98983876745862 67.8802843093872)"><path  id="路径 2" style="stroke:#707070; stroke-width:1; stroke-opacity:1; stroke-dasharray:0 0" transform="translate(0 34.32396697998047)  rotate(0 15.70524900000257 29.98838996887207)" d="M7.57,0C7.57,0 -20.49,40.18 31.41,59.98 " /><path  id="路径 3" style="stroke:#707070; stroke-width:1; stroke-opacity:1; stroke-dasharray:0 0" transform="translate(1.1363886364492313 89.7885513305664)  rotate(0 8.627448081970215 5.900991439819335)" d="M0,0C0,0 9.5,11.8 17.25,11.8 " /><path  id="路径 4" style="stroke:#707070; stroke-width:1; stroke-opacity:1; stroke-dasharray:0 0" transform="translate(86.78025660596217 0)  rotate(0 33.560194290178416 25.005943298339844)" d="M67.12,0C67.12,0 68.39,35.71 0,50.01 " /><path  id="路径 5" style="stroke:#707070; stroke-width:1; stroke-opacity:1; stroke-dasharray:0 0" transform="translate(133.73635706982935 29.95871925354004)  rotate(0 13.121660232543945 7.031291007995605)" d="M26.24,0C26.24,0 9.47,14.06 0,14.06 " /><path  id="路径 6" style="stroke:#707070; stroke-width:1; stroke-opacity:1; stroke-dasharray:0 0" transform="translate(58.45183024487819 83.79210667820993)  rotate(0 41.5058708190918 17.309885000128435)" d="M83.01,0.6C83.01,0.6 16.97,-7.37 0,34.62 " /><path id="路径 7" fill-rule="evenodd" fill="url(#linear_17)" transform="translate(6.545562125066061 52.72321701049805)  rotate(0 16.398592177319692 12.683734457860641)" opacity="1" d="M0 0C0 0 39.01 6.11 31.94 21.59C24.86 37.07 0 0 0 0Z" /><path id="路径 8" fill-rule="evenodd" fill="url(#linear_18)" transform="translate(99.95770106396976 15.110901359913996)  rotate(0 14.918296813964952 7.423908946813023)" opacity="1" d="M0 14.85C0 14.85 5.71 -5.36 29.84 1.37C28.8 10.65 0 14.85 0 14.85Z" /><path id="路径 9" fill-rule="evenodd" fill="url(#linear_19)" transform="translate(65.07695612988795 104.90954001464104)  rotate(0 24.89952278137207 12.25003101636812)" opacity="1" d="M0 23.46C0 23.46 17.82 -11.19 49.8 3.73C34.88 31.33 0 23.46 0 23.46Z" /><path  id="路径 10" style="stroke:#707070; stroke-width:1; stroke-opacity:1; stroke-dasharray:0 0" transform="translate(96.25847468457545 25.005943298339844)  rotate(0 5.745887756347655 5.992032527923585)" d="M0,11.98C0,11.98 4.37,2.63 11.49,0 " /><path  id="路径 11" style="stroke:#707070; stroke-width:1; stroke-opacity:1; stroke-dasharray:0 0" transform="translate(31.41049800000514 71.26490020751953)  rotate(0 4.080235481262207 7.84841299057007)" d="M0,0C0,0 8.16,1.89 8.16,15.7 " /><path  id="路径 12" style="stroke:#707070; stroke-width:1; stroke-opacity:1; stroke-dasharray:0 0" transform="translate(59.984255171636 123.11542510986328)  rotate(0 9.19583511352539 6.322571754455565)" d="M0,12.65C0,12.65 6.63,0 18.39,0 " /></g></g><g opacity="1" transform="translate(316 411.98828122476516)  rotate(0 43 43.50584794352567)"><path id="椭圆形" fill-rule="evenodd" style="fill:#CCDCF6" transform="translate(0 65.01169588705135)  rotate(0 43 11)" opacity="1" d="M43,0C19.25,0 0,4.92 0,11C0,17.08 19.25,22 43,22C66.75,22 86,17.08 86,11C86,4.92 66.75,0 43,0Z " /><g opacity="1" transform="translate(31.211813839215182 3.907361061786087)  rotate(33.000001270765964 11.61198899709479 14.981652290207723)"><path id="矩形" fill-rule="evenodd" fill="url(#linear_20)" transform="translate(9.970633458361942 21.864038528169353)  rotate(0 4.049633026123047 4.049633026123047)" opacity="1" d="M0,8.1L8.1,8.1L8.1,0L0,0L0,8.1Z " /><path id="椭圆形" fill-rule="evenodd" fill="url(#linear_21)" transform="translate(7.025445889697391 6.401803077424724)  rotate(0 8.099266052246094 9.20371150970459)" opacity="1" d="M8.1,0C3.63,0 0,4.12 0,9.2C0,14.29 3.63,18.41 8.1,18.41C12.57,18.41 16.2,14.29 16.2,9.2C16.2,4.12 12.57,0 8.1,0Z " /><path id="路径 53" fill-rule="evenodd" style="fill:#483029" transform="translate(0 1.5109001218345774)  rotate(0 11.236256842559769 10.88078627165361)" opacity="1" d="M4.39682 3.08867C5.25172 2.36405 12.0559 -3.40323 19.64 2.95C22.55 5.18 22.47 8.23 22.47 8.23C22.47 8.23 19.1 12.87 14.83 13.82C14.4811 13.9909 13.9828 13.9134 13.4652 13.8329C12.5289 13.6873 11.5298 13.5319 11.24 14.82C11.11 16.16 11.87 18 12.94 17.67C12.37 19.44 9.74 21.67 9.74 21.67C9.74 21.67 6.47 22.27 3.7 20.42C-0.05 17.58 -2.54 7.96 4.31 3.16C4.31957 3.15415 4.34882 3.12936 4.39682 3.08867Z" /><path id="椭圆形" fill-rule="evenodd" style="fill:#483029" transform="translate(0.9176744334557835 0)  rotate(0 4.090538501739502 4.090538501739502)" opacity="1" d="M4.09,0C1.83,0 0,1.83 0,4.09C0,6.35 1.83,8.18 4.09,8.18C6.35,8.18 8.18,6.35 8.18,4.09C8.18,1.83 6.35,0 4.09,0Z " /></g><path id="路径 52" fill-rule="evenodd" fill="url(#linear_22)" transform="translate(65.16126251220703 68.23625185628963)  rotate(0 5.999978607015878 4.103264649709066)" opacity="1" d="M0 7.86L0 0L3.91 1.1L4.37 4.11C4.37 4.11 7.18 4.19 10.48 5.76C11.89 6.67 11.95 7.08 12 7.86C12.05 8.64 0 7.86 0 7.86Z" /><path id="Fill-1706" fill-rule="evenodd" fill="url(#linear_23)" transform="translate(29.61334991455078 41.84946444378062)  rotate(0 20.647411346435543 15.85354518788292)" opacity="1" d="M11.31 31.71L0 27.36L7.44 16.05C10.92 10.93 19.54 -0.94 29.4 0.06C38.43 0.97 41.29 29.01 41.29 29.01L33.94 29.09L26.83 12.16L11.31 31.71Z" /><path id="Fill-1708" fill-rule="evenodd" fill="url(#linear_24)" transform="translate(9.21720027647583 57.589458490811104)  rotate(0 26.855830179333434 11.022902413388259)" opacity="1" d="M33.4578 21.9631C32.4983 21.9546 31.5118 21.9457 30.5 21.94C25.5555 21.9089 21.661 21.9603 18.5057 22.002C12.5421 22.0808 9.21945 22.1248 6.44 21.51C-1.29 19.81 -0.79 7.74 1.42 0L12.3 8.33C12.3 8.33 29.22 8.5 32.88 8.84C33.5492 8.90217 34.6675 8.88777 36.0487 8.86999C42.2212 8.79053 53.6446 8.64346 53.71 14.96C53.7935 22.145 45.8802 22.0742 33.4578 21.9631Z" /><path id="Fill-1709" fill-rule="evenodd" fill="url(#linear_25)" transform="translate(8.334945678710938 27.021560693992054)  rotate(0 17.640439144268655 19.673437835264224)" opacity="1" d="M10.08 12.86C17.91 -0.9 27.52 0.01 27.52 0.01C27.52 0.01 26.01 2.36 29.92 5.23C31.98 7.08 32.91 7.99 32.91 7.99C32.91 7.99 37.25 16.88 34.19 22.32C31.13 27.76 25.2 39.04 25.2 39.04C5.48 40.83 0 34.19 0 34.19C0 34.19 5.37 21.15 10.08 12.86Z" /><path id="矩形" fill-rule="evenodd" style="fill:#483029" transform="translate(66.99999684295943 50.01169105856428)  rotate(-20.00000065939313 5 0.5)" opacity="1" d="M0,1L10,1L10,0L0,0L0,1Z " /><path id="路径 50备份" fill-rule="evenodd" style="fill:#FEE0BC" transform="translate(65.6609967182999 50.69141952895821)  rotate(-18.999999609349338 3.989119335631027 1.8095671116653782)" opacity="1" d="M3.35 0C3.35 0 4.55 0.04 4.36 0.47C4.18 0.9 3.66 1.02 3.66 1.02L4.96 1.17L6.31 1C6.31 1 8.44 0.77 7.89 2.26C7.25 3.31 5.62 4.14 3.27 3.23C2.52 2.66 0.92 2.57 0.92 2.57L0 0.63C0 0.63 1.1 0.47 2.31 0.33C2.71 0.11 3.35 0 3.35 0Z" /><path id="路径 3" fill-rule="evenodd" fill="url(#linear_26)" transform="translate(26.896247862854388 32.68325489698451)  rotate(0 20.752779007415583 17.47726373237207)" opacity="1" d="M18.6 27.14L39.75 19.15L41.51 23.69C41.51 23.69 23.33 33.35 19.53 34.65C14.8572 35.842 12.7762 33.4328 9.64466 29.8072C9.49239 29.6309 9.33765 29.4518 9.18 29.27C4.68 23.49 0.25 10.51 0.02 7.42C-0.2 4.32 1.17 1.47 4.16 0.1C10.48 -0.82 12.99 4.98 12.99 4.98L18.6 27.14Z" /></g></g></g></svg>